<svg width="20" height="21" viewBox="0 0 20 21" fill="none" xmlns="http://www.w3.org/2000/svg">
<path d="M10 0.75C8.07164 0.75 6.18657 1.32183 4.58319 2.39317C2.97982 3.46451 1.73013 4.98726 0.992179 6.76884C0.254225 8.55042 0.061142 10.5108 0.437348 12.4021C0.813554 14.2934 1.74215 16.0307 3.10571 17.3943C4.46928 18.7579 6.20656 19.6865 8.09787 20.0627C9.98919 20.4389 11.9496 20.2458 13.7312 19.5078C15.5127 18.7699 17.0355 17.5202 18.1068 15.9168C19.1782 14.3134 19.75 12.4284 19.75 10.5C19.747 7.91505 18.7188 5.43683 16.891 3.609C15.0632 1.78116 12.585 0.752977 10 0.75ZM18.25 10.5C18.2507 11.2608 18.1456 12.0181 17.9378 12.75H14.3275C14.5575 11.2588 14.5575 9.74118 14.3275 8.25H17.9378C18.1456 8.98192 18.2507 9.73916 18.25 10.5ZM7.5625 14.25H12.4375C11.9572 15.8237 11.1235 17.2667 10 18.4688C8.87695 17.2664 8.04326 15.8235 7.5625 14.25ZM7.19688 12.75C6.93939 11.2611 6.93939 9.73895 7.19688 8.25H12.8106C13.0681 9.73895 13.0681 11.2611 12.8106 12.75H7.19688ZM1.75 10.5C1.74935 9.73916 1.85442 8.98192 2.06219 8.25H5.6725C5.4425 9.74118 5.4425 11.2588 5.6725 12.75H2.06219C1.85442 12.0181 1.74935 11.2608 1.75 10.5ZM12.4375 6.75H7.5625C8.04277 5.17632 8.87652 3.7333 10 2.53125C11.1231 3.73361 11.9567 5.17653 12.4375 6.75ZM17.3434 6.75H14.0041C13.5832 5.20585 12.8738 3.75532 11.9134 2.475C13.0738 2.75375 14.1602 3.2801 15.098 4.01799C16.0359 4.75588 16.8032 5.68784 17.3472 6.75H17.3434ZM8.08657 2.475C7.12619 3.75532 6.41683 5.20585 5.99594 6.75H2.65282C3.19682 5.68784 3.96407 4.75588 4.90196 4.01799C5.83985 3.2801 6.92621 2.75375 8.08657 2.475ZM2.65282 14.25H5.99594C6.41683 15.7941 7.12619 17.2447 8.08657 18.525C6.92621 18.2463 5.83985 17.7199 4.90196 16.982C3.96407 16.2441 3.19682 15.3122 2.65282 14.25ZM11.9134 18.525C12.8738 17.2447 13.5832 15.7941 14.0041 14.25H17.3472C16.8032 15.3122 16.0359 16.2441 15.098 16.982C14.1602 17.7199 13.0738 18.2463 11.9134 18.525Z" fill="black"/>
</svg>
