<svg width="18" height="18" viewBox="0 0 18 18" fill="none" xmlns="http://www.w3.org/2000/svg">
<path d="M8.02707 1.48605C8.58771 1.00828 9.41229 1.00828 9.97293 1.48605L10.9382 2.30869C11.3387 2.64992 11.8365 2.85614 12.3609 2.89798L13.6252 2.99887C14.3595 3.05747 14.9425 3.64054 15.0011 4.3748L15.102 5.63908C15.1439 6.16349 15.3501 6.66134 15.6913 7.06175L16.5139 8.02707C16.9917 8.58771 16.9917 9.41229 16.5139 9.97293L15.6913 10.9382C15.3501 11.3387 15.1439 11.8365 15.102 12.3609L15.0011 13.6252C14.9425 14.3595 14.3595 14.9425 13.6252 15.0011L12.3609 15.102C11.8365 15.1439 11.3387 15.3501 10.9382 15.6913L9.97293 16.5139C9.41229 16.9917 8.58771 16.9917 8.02707 16.5139L7.06175 15.6913C6.66135 15.3501 6.1635 15.1439 5.63908 15.102L4.3748 15.0011C3.64054 14.9425 3.05747 14.3595 2.99887 13.6252L2.89798 12.3609C2.85614 11.8365 2.64992 11.3387 2.30869 10.9382L1.48605 9.97293C1.00828 9.41229 1.00828 8.58771 1.48605 8.02707L2.30869 7.06175C2.64992 6.66134 2.85614 6.1635 2.89798 5.63908L2.99887 4.3748C3.05747 3.64054 3.64054 3.05747 4.3748 2.99887L5.63908 2.89798C6.16349 2.85614 6.66134 2.64992 7.06175 2.30869L8.02707 1.48605Z" stroke="#8F9AA7"/>
<path d="M13.1737 6.60697L7.67375 12.107C7.62584 12.155 7.56892 12.1932 7.50625 12.2192C7.44357 12.2452 7.37638 12.2586 7.30851 12.2586C7.24065 12.2586 7.17345 12.2452 7.11078 12.2192C7.0481 12.1932 6.99118 12.155 6.94328 12.107L4.53703 9.70072C4.48906 9.65276 4.45102 9.59581 4.42506 9.53315C4.3991 9.47048 4.38574 9.40332 4.38574 9.33548C4.38574 9.26765 4.3991 9.20049 4.42506 9.13782C4.45102 9.07515 4.48906 9.01821 4.53703 8.97025C4.58499 8.92229 4.64193 8.88424 4.7046 8.85828C4.76727 8.83233 4.83443 8.81896 4.90226 8.81896C4.97009 8.81896 5.03726 8.83233 5.09993 8.85828C5.16259 8.88424 5.21953 8.92229 5.2675 8.97025L7.30894 11.0117L12.4441 5.87736C12.541 5.78049 12.6724 5.72607 12.8094 5.72607C12.9464 5.72607 13.0777 5.78049 13.1746 5.87736C13.2715 5.97423 13.3259 6.1056 13.3259 6.24259C13.3259 6.37958 13.2715 6.51096 13.1746 6.60783L13.1737 6.60697Z" fill="#8F9AA7"/>
</svg>
