<svg width="25" height="24" viewBox="0 0 25 24" fill="none" xmlns="http://www.w3.org/2000/svg">
<path d="M22.25 12.0008C22.2469 14.3838 21.3726 16.6834 19.7917 18.4664C18.2109 20.2495 16.0326 21.393 13.6671 21.6815C13.6145 21.6874 13.5611 21.6821 13.5107 21.666C13.4602 21.6498 13.4137 21.6232 13.3743 21.5877C13.3348 21.5523 13.3034 21.5089 13.282 21.4604C13.2605 21.4119 13.2496 21.3595 13.25 21.3065V14.2508H15.5C15.6028 14.2511 15.7045 14.2301 15.7989 14.1894C15.8933 14.1486 15.9783 14.0889 16.0487 14.0139C16.119 13.9389 16.1732 13.8502 16.2078 13.7534C16.2424 13.6566 16.2568 13.5537 16.25 13.4511C16.2334 13.2583 16.1444 13.0788 16.0009 12.9489C15.8574 12.819 15.6701 12.7482 15.4765 12.7508H13.25V10.5008C13.25 10.103 13.408 9.72148 13.6893 9.44017C13.9706 9.15887 14.3521 9.00083 14.75 9.00083H16.25C16.3528 9.00106 16.4545 8.98014 16.5489 8.93938C16.6433 8.89862 16.7283 8.83889 16.7987 8.7639C16.869 8.6889 16.9232 8.60025 16.9578 8.50344C16.9924 8.40663 17.0068 8.30373 17 8.20114C16.9834 8.00796 16.8941 7.82825 16.7502 7.69828C16.6063 7.56831 16.4185 7.49775 16.2246 7.50083H14.75C13.9543 7.50083 13.1912 7.8169 12.6286 8.37951C12.066 8.94212 11.75 9.70518 11.75 10.5008V12.7508H9.49996C9.39714 12.7506 9.29538 12.7715 9.20099 12.8123C9.10659 12.853 9.02159 12.9128 8.95126 12.9878C8.88092 13.0628 8.82676 13.1514 8.79213 13.2482C8.7575 13.345 8.74315 13.4479 8.74996 13.5505C8.76655 13.7437 8.85579 13.9234 8.99968 14.0534C9.14357 14.1834 9.3314 14.2539 9.52527 14.2508H11.75V21.3083C11.7503 21.3612 11.7394 21.4136 11.718 21.462C11.6967 21.5105 11.6653 21.5538 11.626 21.5892C11.5866 21.6246 11.5403 21.6513 11.4899 21.6676C11.4395 21.6838 11.3863 21.6892 11.3337 21.6833C8.90498 21.3876 6.6758 20.1907 5.0874 18.3298C3.49901 16.4688 2.66716 14.0793 2.75652 11.6343C2.94402 6.57177 7.04464 2.45614 12.1109 2.25927C13.4225 2.20846 14.731 2.42272 15.9579 2.88924C17.1848 3.35575 18.3051 4.06493 19.2516 4.97436C20.1981 5.88379 20.9515 6.97478 21.4667 8.18209C21.9819 9.38939 22.2483 10.6882 22.25 12.0008Z" fill="white"/>
</svg>
