<svg width="35" height="23" viewBox="0 0 35 23" fill="none" xmlns="http://www.w3.org/2000/svg">
<path d="M12.3944 0C13.8498 0 15.2908 0.286108 16.6352 0.842175C17.9796 1.39824 19.2014 2.21309 20.2302 3.24076C21.2594 4.26802 22.0753 5.4878 22.6326 6.83056C23.1896 8.17342 23.4763 9.61215 23.4763 11.065C23.4763 15.5405 20.7762 19.575 16.6352 21.2875C12.4942 23 7.72772 22.0535 4.55853 18.8889C1.38935 15.7243 0.441211 10.9653 2.15617 6.83056C3.87155 2.69587 7.91236 0 12.3944 0ZM12.3944 14.3841C12.831 14.3845 13.2635 14.2992 13.6673 14.1327C14.0711 13.9663 14.4374 13.7216 14.7464 13.4131C15.0554 13.1046 15.2999 12.7386 15.4671 12.3358C15.6339 11.9326 15.7196 11.5007 15.7191 11.0646C15.7191 9.72187 14.909 8.5116 13.6669 7.99777C12.4247 7.48393 10.9946 7.76797 10.044 8.71738C9.09337 9.6668 8.80893 11.0944 9.32333 12.3349C9.83774 13.5754 11.0504 14.3841 12.3948 14.3841H12.3944Z" fill="#CBEFFB"/>
<path d="M24.8505 8.29837C27.6662 9.10742 30.9896 8.29837 30.9896 8.29837C30.0253 12.503 26.9663 15.1364 22.5558 15.4569C22.1306 16.4424 21.5636 17.361 20.8724 18.1838C20.182 19.0058 19.3748 19.7232 18.4763 20.3132C17.5781 20.9028 16.5988 21.3587 15.5687 21.6663C14.5386 21.974 13.4695 22.1297 12.3945 22.1293L15.7192 11.5789C19.1367 0.734522 20.8887 0 28.9936 0H34.5585C33.6278 4.09411 30.4191 7.22143 24.8509 8.29837H24.8505Z" fill="white"/>
</svg>
