<svg width="25" height="24" viewBox="0 0 25 24" fill="none" xmlns="http://www.w3.org/2000/svg">
<rect x="0.5" width="24" height="24" rx="2" fill="#3F3456"/>
<path fill-rule="evenodd" clip-rule="evenodd" d="M4.86377 17.3636C4.86377 17.4136 4.90428 17.454 4.95425 17.454H7.49714C7.54711 17.454 7.58762 17.4136 7.58762 17.3636V13.2585H10.6649C10.7148 13.2585 10.7553 13.218 10.7553 13.1681V10.9905C10.7553 10.9406 10.7148 10.9001 10.6649 10.9001H7.58762V8.90332H11.3187C11.3687 8.90332 11.4092 8.86285 11.4092 8.81291V6.63532C11.4092 6.58539 11.3687 6.54492 11.3187 6.54492H4.95425C4.90428 6.54492 4.86377 6.58539 4.86377 6.63532V17.3636Z" fill="white"/>
<path d="M22.2947 15.6798C22.324 15.6483 22.3263 15.6031 22.2999 15.5696L20.8464 13.7113C20.829 13.689 20.8013 13.675 20.7711 13.6731C20.7407 13.6713 20.7112 13.6818 20.6905 13.7018L20.6767 13.7146C20.6671 13.7235 20.6527 13.7367 20.6334 13.7537C20.5949 13.7876 20.5378 13.8364 20.4636 13.8951C20.315 14.0125 20.0988 14.1694 19.8293 14.3262C19.2889 14.6405 18.5408 14.9505 17.6955 14.9505C15.6349 14.9505 14.5336 13.424 14.5336 11.9196C14.5336 11.1901 14.7898 10.472 15.3102 9.93767C15.8288 9.40518 16.6161 9.04849 17.6955 9.04849C18.4711 9.04849 19.1764 9.30588 19.6912 9.56672C19.9479 9.69682 20.1556 9.82694 20.299 9.92436C20.3706 9.97304 20.426 10.0135 20.4633 10.0416C20.4819 10.0556 20.4959 10.0666 20.5053 10.0739L20.5156 10.0822L20.5181 10.0842C20.5403 10.1023 20.5709 10.1111 20.6006 10.1074C20.6302 10.1036 20.6565 10.0881 20.6722 10.0651L21.9804 8.14884C22.0037 8.1147 21.9992 8.07082 21.9693 8.04105L21.9678 8.03949L21.9641 8.03582C21.9609 8.03271 21.9561 8.02824 21.9501 8.02252C21.9378 8.01107 21.9199 7.9946 21.8962 7.97383C21.8486 7.93226 21.7783 7.87347 21.6849 7.80319C21.4985 7.66265 21.2202 7.47603 20.8518 7.28967C20.1145 6.91674 19.0155 6.54492 17.5663 6.54492C14.0396 6.54492 11.4092 8.90704 11.4092 11.9777C11.4092 15.1047 13.8923 17.454 17.5663 17.454C19.0988 17.454 20.2797 17.0118 21.0773 16.5694C21.4761 16.3484 21.7793 16.1271 21.9832 15.9606C22.0853 15.8774 22.1624 15.8078 22.2145 15.7588C22.2405 15.7342 22.2602 15.7148 22.2736 15.7014C22.2804 15.6946 22.2855 15.6893 22.2889 15.6857L22.293 15.6816L22.2947 15.6798Z" fill="white"/>
</svg>
