<svg width="36" height="26" viewBox="0 0 36 26" fill="none" xmlns="http://www.w3.org/2000/svg">
<rect y="0.5" width="36" height="25" rx="2.5" fill="white"/>
<path fill-rule="evenodd" clip-rule="evenodd" d="M10.9961 17.436H8.81516L7.17975 11.1174C7.10213 10.8267 6.93731 10.5698 6.69487 10.4487C6.08983 10.1443 5.42312 9.9021 4.6958 9.77994V9.53667H8.20906C8.69394 9.53667 9.0576 9.9021 9.11821 10.3265L9.96676 14.8843L12.1466 9.53667H14.2669L10.9961 17.436ZM15.4791 17.436H13.4194L15.1154 9.53667H17.1751L15.4791 17.436ZM19.8398 11.725C19.9004 11.2996 20.2641 11.0563 20.6884 11.0563C21.3551 10.9952 22.0814 11.1174 22.6875 11.4207L23.0511 9.71992C22.445 9.47665 21.7783 9.35449 21.1733 9.35449C19.1742 9.35449 17.7195 10.4487 17.7195 11.9672C17.7195 13.1225 18.7499 13.7291 19.4772 14.0945C20.2641 14.4589 20.5672 14.7021 20.5066 15.0665C20.5066 15.6131 19.9004 15.8564 19.2954 15.8564C18.5681 15.8564 17.8408 15.6742 17.1751 15.3698L16.8115 17.0716C17.5388 17.3749 18.3256 17.4971 19.053 17.4971C21.2945 17.5571 22.6875 16.464 22.6875 14.8233C22.6875 12.7571 19.8398 12.636 19.8398 11.725V11.725ZM29.8958 17.436L28.2604 9.53667H26.5038C26.1401 9.53667 25.7765 9.77994 25.6552 10.1443L22.6268 17.436H24.7471L25.1703 16.2818H27.7755L28.018 17.436H29.8958ZM26.8068 11.664L27.4118 14.6411H25.7158L26.8068 11.664Z" fill="#172B85"/>
</svg>
