<svg width="36" height="26" viewBox="0 0 36 26" fill="none" xmlns="http://www.w3.org/2000/svg">
<rect y="0.5" width="36" height="25" rx="2.5" fill="white"/>
<path d="M8.30122 7.94201C8.33165 6.69819 9.4265 5.62458 10.6465 5.6064C11.8648 5.6026 13.0833 5.60585 14.3016 5.60475C14.2982 9.7663 14.3082 13.9283 14.2965 18.0896C14.2496 19.3183 13.1667 20.3715 11.9599 20.3932C10.7394 20.3977 9.51864 20.3939 8.29801 20.3951V15.2003C9.48365 15.484 10.727 15.6047 11.9365 15.4166C12.6595 15.2988 13.4506 14.9392 13.6954 14.1795C13.8755 13.5298 13.7741 12.8459 13.8009 12.179V10.6302H11.7077C11.6982 11.6545 11.7269 12.6806 11.6925 13.7038C11.6361 14.3326 11.0211 14.7322 10.4355 14.7108C9.70917 14.7186 8.26989 14.1778 8.26989 14.1778C8.26627 12.2586 8.29096 9.85504 8.30122 7.94219V7.94201Z" fill="url(#paint0_linear_391_9456)"/>
<path d="M22.9557 13.2992C23.4841 13.3108 24.0154 13.2755 24.5416 13.3175C25.0746 13.4182 25.203 14.2352 24.7295 14.5028C24.4065 14.6791 24.0227 14.5685 23.6725 14.5996H22.9557V13.2992V13.2992ZM24.8471 11.8273C24.9645 12.2469 24.5651 12.6236 24.1661 12.5658H22.9557C22.9642 12.1701 22.9391 11.7406 22.968 11.3658C23.4529 11.3796 23.9422 11.3376 24.4243 11.3877C24.6314 11.4404 24.8047 11.6129 24.8471 11.8273V11.8273ZM27.76 5.60452C27.7825 6.40588 27.7633 7.24959 27.7697 8.0672C27.7682 11.3913 27.7729 14.7153 27.7672 18.0396C27.7459 19.2854 26.6557 20.3679 25.4341 20.3928C24.2113 20.3978 22.9883 20.3935 21.7654 20.3949V15.3696C23.0978 15.3626 24.431 15.3837 25.7629 15.359C26.3808 15.3197 27.0576 14.9069 27.0864 14.2182C27.1591 13.5266 26.5153 13.0483 25.904 12.9727C25.669 12.9665 25.6759 12.9034 25.904 12.8758C26.487 12.7482 26.9449 12.1371 26.7733 11.5251C26.6271 10.8814 25.9246 10.6322 25.3403 10.6335C24.1488 10.6253 22.9571 10.6323 21.7656 10.6299C21.7733 9.69175 21.7496 8.75257 21.7784 7.81508C21.8728 6.59178 22.9905 5.58295 24.1949 5.60484C25.3834 5.60466 26.5718 5.60466 27.76 5.60461V5.60452Z" fill="url(#paint1_linear_391_9456)"/>
<path d="M15.0821 11.2551C14.972 11.2788 15.06 10.875 15.0318 10.7218C15.0393 9.7534 15.0161 8.78391 15.0446 7.81616C15.1387 6.58768 16.265 5.57634 17.4743 5.60509H21.0356C21.0323 9.76664 21.0422 13.9286 21.0306 18.09C20.9836 19.3187 19.9006 20.3718 18.6939 20.3936C17.4732 20.3982 16.2525 20.3943 15.0318 20.3955V14.7039C15.8655 15.3966 16.9985 15.5045 18.0372 15.5064C18.8202 15.5061 19.5986 15.3838 20.359 15.2009V14.1582C19.5021 14.5908 18.4947 14.8655 17.5448 14.617C16.8822 14.45 16.4011 13.8014 16.4119 13.1088C16.3351 12.3886 16.752 11.6282 17.4508 11.4141C18.3185 11.139 19.2642 11.3494 20.0775 11.7071C20.2518 11.7995 20.4286 11.9141 20.359 11.6191V10.7995C18.9987 10.4718 17.5511 10.3512 16.1844 10.7077C15.7889 10.8207 15.4035 10.9921 15.0821 11.2552V11.2551Z" fill="url(#paint2_linear_391_9456)"/>
<defs>
<linearGradient id="paint0_linear_391_9456" x1="8.17028" y1="13.1416" x2="14.2031" y2="13.1416" gradientUnits="userSpaceOnUse">
<stop stop-color="#0F6EB6"/>
<stop offset="1" stop-color="#006DBA"/>
</linearGradient>
<linearGradient id="paint1_linear_391_9456" x1="21.7244" y1="12.6835" x2="27.7319" y2="12.6835" gradientUnits="userSpaceOnUse">
<stop stop-color="#58B03A"/>
<stop offset="1" stop-color="#55B330"/>
</linearGradient>
<linearGradient id="paint2_linear_391_9456" x1="15.023" y1="12.8273" x2="21.0345" y2="12.8273" gradientUnits="userSpaceOnUse">
<stop stop-color="#DE0D3D"/>
<stop offset="1" stop-color="#E30138"/>
</linearGradient>
</defs>
</svg>
