<svg width="36" height="26" viewBox="0 0 36 26" fill="none" xmlns="http://www.w3.org/2000/svg">
<rect y="0.5" width="36" height="25" rx="2.5" fill="white"/>
<path d="M14.6348 23.9896L34.4609 18V22.4396C34.4609 23.2956 33.7669 23.9896 32.9109 23.9896H14.6348Z" fill="#FD6020"/>
<path fill-rule="evenodd" clip-rule="evenodd" d="M30.6716 9.99046C31.7624 9.99046 32.3623 10.4941 32.3623 11.4456C32.4168 12.1731 31.926 12.7887 31.2715 12.9007L32.744 14.9714H31.5987L30.3444 12.9566H30.2353V14.9714H29.3082V9.99046H30.6716ZM30.2353 12.2851H30.508C31.1079 12.2851 31.3806 12.0052 31.3806 11.5015C31.3806 11.0538 31.1079 10.774 30.508 10.774H30.2353V12.2851ZM26.0905 14.9714H28.7083V14.1319H27.0176V12.7887H28.6538V11.9493H27.0176V10.8299H28.7083V9.99046H26.0905V14.9714V14.9714ZM23.3636 13.3484L22.1093 9.99046H21.1276L23.1455 15.0833H23.6363L25.6542 9.99046H24.6725L23.3636 13.3484V13.3484ZM12.2926 12.5089C12.2926 13.9081 13.3834 15.0833 14.7468 15.0833C15.1831 15.0833 15.5648 14.9714 15.9466 14.8035V13.6842C15.6739 14.02 15.2922 14.2439 14.8559 14.2439C13.9833 14.2439 13.2743 13.5723 13.2743 12.6768V12.5649C13.2198 11.6694 13.9287 10.8859 14.8013 10.83C15.2376 10.83 15.6739 11.0538 15.9466 11.3896V10.2703C15.6194 10.0464 15.1831 9.99047 14.8013 9.99047C13.3834 9.87854 12.2926 11.0538 12.2926 12.5089V12.5089ZM10.602 11.8933C10.0566 11.6694 9.89298 11.5575 9.89298 11.2777C9.94752 10.9419 10.2202 10.6621 10.5474 10.718C10.8201 10.718 11.0928 10.8859 11.3109 11.1098L11.8018 10.4382C11.42 10.1024 10.9292 9.87854 10.4384 9.87854C9.67483 9.82257 9.02039 10.4382 8.96585 11.2217V11.2777C8.96585 11.9493 9.23854 12.341 10.1111 12.6208C10.3293 12.6768 10.5474 12.7887 10.7656 12.9007C10.9292 13.0126 11.0383 13.1805 11.0383 13.4044C11.0383 13.7961 10.711 14.1319 10.3838 14.1319H10.3293C9.89298 14.1319 9.51122 13.8521 9.34761 13.4603L8.7477 14.076C9.07493 14.6916 9.72937 15.0274 10.3838 15.0274C11.2564 15.0833 11.9654 14.4117 12.0199 13.5163V13.3484C11.9654 12.6768 11.6927 12.341 10.602 11.8933V11.8933ZM7.43881 14.9714H8.36594V9.99046H7.43881V14.9714V14.9714ZM3.13037 9.99048H4.4938H4.76648C6.07537 10.0464 7.11158 11.1658 7.05704 12.5089C7.05704 13.2365 6.72982 13.9081 6.18445 14.4118C5.69361 14.8035 5.09371 15.0274 4.4938 14.9714H3.13037V9.99048ZM4.3302 14.1319C4.76649 14.1879 5.25733 14.02 5.58455 13.7402C5.91177 13.4044 6.07538 12.9566 6.07538 12.4529C6.07538 12.0052 5.91177 11.5575 5.58455 11.2217C5.25733 10.9419 4.76649 10.774 4.3302 10.8299H4.05751V14.1319H4.3302Z" fill="black"/>
<path fill-rule="evenodd" clip-rule="evenodd" d="M18.7279 9.875C17.3645 9.875 16.2192 10.9943 16.2192 12.4494C16.2192 13.8486 17.31 15.0238 18.7279 15.0798C20.1459 15.1358 21.2367 13.9605 21.2912 12.5054C21.2367 11.0503 20.1459 9.875 18.7279 9.875V9.875Z" fill="#FD6020"/>
</svg>
