<svg width="36" height="26" viewBox="0 0 36 26" fill="none" xmlns="http://www.w3.org/2000/svg">
<rect y="0.5" width="36" height="25" rx="2.5" fill="white"/>
<path fill-rule="evenodd" clip-rule="evenodd" d="M18.3356 18.7773C16.962 19.9277 15.1801 20.6222 13.2331 20.6222C8.8886 20.6222 5.3667 17.1644 5.3667 12.899C5.3667 8.63359 8.8886 5.17578 13.2331 5.17578C15.1801 5.17578 16.962 5.8703 18.3356 7.02078C19.7093 5.87032 21.4911 5.1758 23.4381 5.1758C27.7826 5.1758 31.3045 8.63361 31.3045 12.899C31.3045 17.1644 27.7826 20.6223 23.4381 20.6223C21.4911 20.6223 19.7092 19.9277 18.3356 18.7773Z" fill="#ED0006"/>
<path fill-rule="evenodd" clip-rule="evenodd" d="M18.3354 18.7773C20.0268 17.3607 21.0993 15.2528 21.0993 12.899C21.0993 10.5452 20.0268 8.43733 18.3354 7.02075C19.7091 5.87029 21.4909 5.17578 23.438 5.17578C27.7824 5.17578 31.3043 8.63359 31.3043 12.899C31.3043 17.1644 27.7824 20.6222 23.438 20.6222C21.4909 20.6222 19.7091 19.9277 18.3354 18.7773Z" fill="#F9A000"/>
<path fill-rule="evenodd" clip-rule="evenodd" d="M18.3356 18.7769C20.027 17.3604 21.0994 15.2525 21.0994 12.8987C21.0994 10.5449 20.027 8.43709 18.3356 7.02051C16.6443 8.43709 15.5718 10.5449 15.5718 12.8987C15.5718 15.2525 16.6443 17.3604 18.3356 18.7769Z" fill="#FF5E00"/>
</svg>
