<svg width="36" height="26" viewBox="0 0 36 26" fill="none" xmlns="http://www.w3.org/2000/svg">
<rect y="0.5" width="36" height="25" rx="2.5" fill="white"/>
<path d="M20.7804 12.9141C20.7804 17.1813 17.3548 20.6406 13.1292 20.6406C8.90358 20.6406 5.47803 17.1813 5.47803 12.9141C5.47803 8.6468 8.90358 5.1875 13.1292 5.1875C17.3548 5.1875 20.7804 8.6468 20.7804 12.9141Z" fill="#ED0006"/>
<path d="M30.7062 12.9141C30.7062 17.1813 27.2806 20.6406 23.055 20.6406C18.8294 20.6406 15.4038 17.1813 15.4038 12.9141C15.4038 8.6468 18.8294 5.1875 23.055 5.1875C27.2806 5.1875 30.7062 8.6468 30.7062 12.9141Z" fill="#0099DF"/>
<path fill-rule="evenodd" clip-rule="evenodd" d="M18.092 18.7947C19.7371 17.3775 20.7802 15.2688 20.7802 12.914C20.7802 10.5592 19.7371 8.4504 18.092 7.0332C16.4469 8.4504 15.4038 10.5592 15.4038 12.914C15.4038 15.2688 16.4469 17.3775 18.092 18.7947Z" fill="#6C6BBD"/>
</svg>
