<svg width="36" height="26" viewBox="0 0 36 26" fill="none" xmlns="http://www.w3.org/2000/svg">
<rect y="0.5" width="36" height="25" rx="2.5" fill="white"/>
<path d="M19.7788 20.8124C23.9575 20.8329 27.7715 17.3294 27.7715 13.0676C27.7715 8.40738 23.9575 5.18576 19.7788 5.1875H16.1824C11.954 5.18576 8.47314 8.40825 8.47314 13.0676C8.47314 17.3303 11.954 20.8329 16.1824 20.8124H19.7788Z" fill="#0079BE"/>
<path d="M16.1996 5.83301C12.3353 5.83431 9.20441 9.03505 9.20312 12.9855C9.20441 16.9356 12.3353 20.1363 16.1996 20.1376C20.0643 20.1363 23.1965 16.9356 23.1969 12.9855C23.1965 9.03505 20.0648 5.83431 16.1996 5.83301ZM11.765 12.9855C11.7642 12.0721 12.0355 11.1798 12.5434 10.425C13.0514 9.67023 13.7723 9.08821 14.612 8.75499V17.2156C13.7722 16.8826 13.0512 16.3007 12.5432 15.546C12.0353 14.7913 11.7641 13.8989 11.765 12.9855V12.9855ZM17.7867 17.2174V8.75455C18.6271 9.0873 19.3487 9.66928 19.857 10.4243C20.3653 11.1793 20.6366 12.0722 20.6355 12.986C20.6364 13.8997 20.365 14.7925 19.8567 15.5475C19.3485 16.3025 18.627 16.8845 17.7867 17.2174V17.2174Z" fill="white"/>
<path d="M19.7788 20.8124C23.9575 20.8329 27.7715 17.3294 27.7715 13.0676C27.7715 8.40738 23.9575 5.18576 19.7788 5.1875H16.1824C11.954 5.18576 8.47314 8.40825 8.47314 13.0676C8.47314 17.3303 11.954 20.8329 16.1824 20.8124H19.7788Z" fill="#0079BE"/>
<path d="M16.1996 5.83301C12.3353 5.83431 9.20441 9.03505 9.20312 12.9855C9.20441 16.9356 12.3353 20.1363 16.1996 20.1376C20.0643 20.1363 23.1965 16.9356 23.1969 12.9855C23.1965 9.03505 20.0648 5.83431 16.1996 5.83301ZM11.765 12.9855C11.7642 12.0721 12.0355 11.1798 12.5434 10.425C13.0514 9.67023 13.7723 9.08821 14.612 8.75499V17.2156C13.7722 16.8826 13.0512 16.3007 12.5432 15.546C12.0353 14.7913 11.7641 13.8989 11.765 12.9855V12.9855ZM17.7867 17.2174V8.75455C18.6271 9.0873 19.3487 9.66928 19.857 10.4243C20.3653 11.1793 20.6366 12.0722 20.6355 12.986C20.6364 13.8997 20.365 14.7925 19.8567 15.5475C19.3485 16.3025 18.627 16.8845 17.7867 17.2174V17.2174Z" fill="white"/>
</svg>
