<svg width="124" height="126" viewBox="0 0 124 126" fill="none" xmlns="http://www.w3.org/2000/svg">
<path d="M41.9004 114.916C41.9004 114.364 42.3481 113.916 42.9004 113.916C43.4527 113.916 43.9004 114.364 43.9004 114.916C43.9004 117.183 44.8012 119.358 46.4043 120.961C48.0077 122.564 50.1827 123.466 52.4502 123.466C54.7177 123.466 56.8927 122.564 58.4961 120.961C60.0992 119.358 60.9999 117.183 61 114.916V61.6602C61 61.1079 61.4477 60.6602 62 60.6602C62.5522 60.6603 63 61.1079 63 61.6602V114.916C62.9999 117.714 61.8886 120.398 59.9102 122.376C57.9317 124.354 55.2481 125.466 52.4502 125.466C49.6523 125.466 46.9687 124.354 44.9902 122.376C43.0118 120.398 41.9004 117.714 41.9004 114.916Z" fill="#EE5F96"/>
<path d="M121.125 61.6602C121.125 57.9388 119.647 54.3697 117.016 51.7383C114.384 49.1069 110.815 47.6289 107.094 47.6289C103.372 47.6289 99.8032 49.1069 97.1719 51.7383C94.5405 54.3697 93.0625 57.9388 93.0625 61.6602C93.0625 62.2124 92.6148 62.6602 92.0625 62.6602C91.5102 62.6602 91.0625 62.2124 91.0625 61.6602C91.0625 59.8176 90.6992 57.9933 89.9941 56.291C89.289 54.5887 88.256 53.0412 86.9531 51.7383C85.6502 50.4354 84.1027 49.4024 82.4004 48.6973C80.6981 47.9922 78.8738 47.6289 77.0312 47.6289C75.1887 47.6289 73.3644 47.9922 71.6621 48.6973C69.9598 49.4024 68.4123 50.4354 67.1094 51.7383C65.8065 53.0412 64.7735 54.5887 64.0684 56.291C63.3633 57.9933 63 59.8176 63 61.6602C63 62.2124 62.5523 62.6602 62 62.6602C61.4477 62.6602 61 62.2124 61 61.6602C61 57.9388 59.522 54.3697 56.8906 51.7383C54.2593 49.1069 50.6901 47.6289 46.9688 47.6289C43.2474 47.6289 39.6782 49.1069 37.0469 51.7383C34.4155 54.3697 32.9375 57.9388 32.9375 61.6602C32.9375 62.2124 32.4898 62.6602 31.9375 62.6602C31.3852 62.6602 30.9375 62.2124 30.9375 61.6602C30.9375 57.9388 29.4595 54.3697 26.8281 51.7383C24.1968 49.1069 20.6276 47.6289 16.9062 47.6289C13.1849 47.6289 9.61574 49.1069 6.98438 51.7383C4.35301 54.3697 2.875 57.9388 2.875 61.6602C2.875 62.2124 2.42728 62.6602 1.875 62.6602C1.32272 62.6602 0.875 62.2124 0.875 61.6602C0.875 45.4488 7.31516 29.9016 18.7783 18.4385C30.2415 6.97532 45.7886 0.535156 62 0.535156C78.2114 0.535156 93.7585 6.97532 105.222 18.4385C116.685 29.9016 123.125 45.4488 123.125 61.6602C123.125 62.2124 122.677 62.6602 122.125 62.6602C121.573 62.6602 121.125 62.2124 121.125 61.6602ZM62 2.53516C46.3191 2.53516 31.2805 8.76445 20.1924 19.8525C11.2134 28.8316 5.42082 40.4012 3.54199 52.8047C4.12911 51.9186 4.8075 51.087 5.57031 50.3242C8.57676 47.3178 12.6545 45.6289 16.9062 45.6289C21.158 45.6289 25.2357 47.3178 28.2422 50.3242C29.891 51.9731 31.1425 53.9446 31.9375 56.0898C32.7325 53.9446 33.984 51.9731 35.6328 50.3242C38.6393 47.3178 42.717 45.6289 46.9688 45.6289C51.2205 45.6289 55.2982 47.3178 58.3047 50.3242C59.9535 51.9731 61.205 53.9446 62 56.0898C62.0701 55.9006 62.1433 55.7122 62.2207 55.5254C63.0263 53.5804 64.2067 51.8129 65.6953 50.3242C67.1839 48.8356 68.9515 47.6553 70.8965 46.8496C72.8415 46.044 74.926 45.6289 77.0312 45.6289C79.1365 45.6289 81.221 46.044 83.166 46.8496C85.111 47.6553 86.8786 48.8356 88.3672 50.3242C89.8558 51.8129 91.0362 53.5804 91.8418 55.5254C91.9191 55.7121 91.9914 55.9007 92.0615 56.0898C92.8565 53.9445 94.1089 51.9731 95.7578 50.3242C98.7643 47.3178 102.842 45.6289 107.094 45.6289C111.345 45.6289 115.423 47.3178 118.43 50.3242C119.192 51.0869 119.87 51.9188 120.457 52.8047C118.578 40.4013 112.787 28.8315 103.808 19.8525C92.7195 8.76445 77.6809 2.53516 62 2.53516Z" fill="#EE5F96"/>
</svg>
