<svg width="60" height="60" viewBox="0 0 60 60" fill="none" xmlns="http://www.w3.org/2000/svg">
<rect width="60" height="60" fill="white"/>
<path d="M20.3121 24.87C20.1984 25.2185 20.4433 25.576 20.9857 25.8083C21.3093 25.9513 21.7555 25.9423 22.1666 25.844C22.7877 25.6921 23.4962 25.3079 23.4962 25.3079C23.4962 25.3079 22.9364 24.9147 22.5865 24.459C22.2103 23.9764 21.4843 22.5735 20.7932 23.1722C20.3209 23.5833 21.1344 24.459 21.1344 24.459C21.1344 24.459 20.4258 24.5305 20.3121 24.87Z" fill="#EE5F96"/>
<path d="M21.9392 21.3672C21.7729 22.1267 21.7904 22.1535 22.8489 22.8327C22.5865 22.234 22.4465 21.7067 21.9392 21.3672Z" fill="#EE5F96"/>
<path d="M24.5896 20.3842C24.7383 20.4915 24.8958 20.5719 24.6946 20.6702C24.8608 20.7774 24.7908 21.0097 24.9308 21.1348C25.202 21.3672 25.4994 21.5459 25.8405 21.6174C26.1467 21.6799 26.4878 21.7693 26.7765 21.6799C27.0389 21.5995 27.2314 21.6621 27.4501 21.7425C27.8 21.8676 28.1499 21.9927 28.4998 22.1178C28.4998 22.0642 28.4823 22.0374 28.4648 22.0195C28.0536 21.7157 27.5988 21.4655 27.2314 21.0812C27.1964 21.0455 27.1177 21.0366 27.0564 21.0187C26.6103 20.9204 26.1992 20.7417 25.8055 20.5093C25.7268 20.4647 25.6393 20.42 25.7531 20.3217C26.1904 19.9285 26.5841 19.4907 27.0914 19.1779C27.6513 18.8383 28.1061 18.9813 28.3685 19.5979C28.6222 20.2055 28.8759 20.8132 28.9896 21.4744C28.9984 21.4387 29.0246 21.4029 29.0246 21.3672C29.0071 20.563 28.9196 19.7766 28.6572 19.0171C28.5697 18.7669 28.386 18.606 28.1236 18.5613C27.8962 18.5345 27.6687 18.5167 27.4413 18.4898C26.9864 18.4362 26.6278 18.606 26.3129 18.9188C26.1554 19.0796 26.0417 19.2673 26.068 19.4996C26.1117 20 25.7181 20.1787 25.4469 20.4468C25.3944 20.5004 25.3157 20.4557 25.2457 20.4379C25.0707 20.3932 24.9395 20.2413 24.7558 20.1787C24.7471 20.277 24.9308 20.4379 24.5896 20.3842Z" fill="#EE5F96"/>
<path d="M38.5856 9C34.3256 9.00894 31.3864 9.24127 29.1646 10.4655C28.2461 10.9569 27.4151 11.6003 26.7065 12.3599C26.5403 12.5297 26.4004 12.6905 26.2866 12.8335C26.2604 12.8692 26.2342 12.905 26.2079 12.9318C26.1904 12.9496 26.1817 12.9675 26.1642 12.9854C25.7443 13.5126 25.3857 14.0845 25.0795 14.6921C24.8958 15.0049 24.7471 15.2551 24.7034 15.3176C24.126 16.5418 22.9014 17.3729 21.4843 17.3729C20.7058 17.3729 19.9885 17.1227 19.3936 16.6937C19.1487 17.069 19 17.5158 19 18.0073C19 19.303 20.1547 20.3217 21.4056 20.4468C22.1228 20.5183 22.6564 20.5987 23.5399 20.3038C24.2485 20.0715 24.957 19.589 25.2107 19.0975C25.9105 17.7303 26.6715 16.247 29.2171 15.8716C29.7681 15.7912 31.264 15.9253 32.0862 16.4346C33.0222 17.0065 33.5121 17.5516 33.6958 17.9805C33.5121 18.0431 33.2846 18.1771 33.2409 18.2039C32.4274 18.6775 31.7013 19.2405 31.3252 20.6434C31.124 21.4029 31.229 22.3769 31.6751 23.2973C32.025 24.0301 31.6314 25.7547 29.8994 25.3436C29.8469 25.3347 29.8994 25.5849 29.9169 25.6296C29.9781 25.844 30.3105 26.4785 31.2027 26.5232C31.5876 26.541 31.7976 26.4963 32.095 26.3355C32.9785 25.8351 32.8648 25.1649 32.7773 24.6019C32.751 24.4143 32.7335 24.2266 32.7248 24.0301C32.716 23.8603 32.716 23.6905 32.7248 23.5118C32.7335 23.1454 32.8298 22.6897 33.0047 22.2161C33.1884 21.7067 33.4508 21.2421 33.7832 20.831C34.2119 20.2859 34.7892 19.8034 35.5065 19.4996C35.5065 19.4996 35.5065 19.4996 35.5152 19.4996C35.5415 19.4907 36.0663 19.2405 36.6087 19.169C36.8449 19.1332 37.0985 19.1064 37.3435 19.1064C37.4834 19.1064 41.1749 19.1332 41.1749 19.1332V9C41.1749 9 39.5653 9 38.5856 9Z" fill="#EE5F96"/>
<path d="M37.3697 29.0431H34.1944C33.3021 29.0431 32.4186 29.1592 31.5789 29.3737C29.8119 29.7847 28.1936 30.6515 26.8552 31.9025C26.4966 31.7774 25.9542 31.2413 27.4588 30.2762C28.7709 29.4273 28.9809 27.4257 28.8672 27.5329C27.0477 29.1413 26.8465 29.3826 24.9045 29.186C24.5284 29.1503 23.295 28.9805 22.499 28.7929C22.0091 28.6767 20.2946 28.3371 20.1897 27.7563C20.0759 27.1397 20.3559 26.1657 21.0207 25.9691C20.5658 25.9602 19.7785 26.7644 19.7173 27.5418C19.6561 28.3014 19.8135 28.3729 20.4521 28.6856C21.1169 29.0162 21.493 29.1324 22.0966 29.3379C22.4028 29.4362 23.0501 29.74 23.295 29.9456C24.0036 30.5443 23.9073 31.2502 24.0211 32.4029C24.0998 33.1535 24.0298 36.3883 24.0123 38.9171V44.9488C24.0998 44.9488 24.2835 44.9488 24.2835 44.9488H28.7184V39.221C28.7184 36.4151 31.1065 34.1275 34.0369 34.1275H37.4484V29.1145H37.3697V29.0431Z" fill="#EE5F96"/>
</svg>
