<svg width="24" height="25" viewBox="0 0 24 25" fill="none" xmlns="http://www.w3.org/2000/svg">
<g id="Star">
<path id="Vector" d="M21.9646 11.2056L17.7459 14.8459L19.0312 20.2899C19.1021 20.5855 19.0838 20.8954 18.9787 21.1806C18.8736 21.4657 18.6863 21.7133 18.4405 21.8921C18.1947 22.0709 17.9015 22.1728 17.5978 22.185C17.2941 22.1972 16.9936 22.1191 16.7343 21.9606L11.9999 19.0468L7.26275 21.9606C7.00347 22.1182 6.70335 22.1955 6.4002 22.1829C6.09704 22.1702 5.8044 22.0682 5.55913 21.8896C5.31386 21.7109 5.12692 21.4637 5.02185 21.1791C4.91679 20.8945 4.89829 20.5851 4.96869 20.2899L6.25869 14.8459L2.03994 11.2056C1.81053 11.0073 1.64462 10.7458 1.56293 10.4538C1.48123 10.1618 1.48737 9.85223 1.58058 9.5637C1.67379 9.27517 1.84994 9.02049 2.08703 8.83147C2.32412 8.64245 2.61164 8.52747 2.91369 8.50089L8.44494 8.05464L10.5787 2.89089C10.6942 2.60946 10.8908 2.36874 11.1434 2.19933C11.3961 2.02991 11.6934 1.93945 11.9976 1.93945C12.3018 1.93945 12.5991 2.02991 12.8518 2.19933C13.1044 2.36874 13.301 2.60946 13.4165 2.89089L15.5493 8.05464L21.0806 8.50089C21.3832 8.52648 21.6716 8.64082 21.9095 8.82958C22.1475 9.01834 22.3244 9.27312 22.4182 9.562C22.512 9.85088 22.5185 10.161 22.4368 10.4536C22.3551 10.7461 22.1889 11.008 21.959 11.2065L21.9646 11.2056Z" fill="#EE5F96"/>
</g>
</svg>
