<svg width="24" height="25" viewBox="0 0 24 25" fill="none" xmlns="http://www.w3.org/2000/svg">
<g id="ChartBar">
<path id="Vector" d="M21.75 19.9385C21.75 20.1374 21.671 20.3282 21.5303 20.4688C21.3897 20.6095 21.1989 20.6885 21 20.6885H3C2.80109 20.6885 2.61032 20.6095 2.46967 20.4688C2.32902 20.3282 2.25 20.1374 2.25 19.9385C2.25 19.7396 2.32902 19.5488 2.46967 19.4081C2.61032 19.2675 2.80109 19.1885 3 19.1885H3.75V13.1885C3.75 12.9896 3.82902 12.7988 3.96967 12.6581C4.11032 12.5175 4.30109 12.4385 4.5 12.4385H6.75C6.94891 12.4385 7.13968 12.5175 7.28033 12.6581C7.42098 12.7988 7.5 12.9896 7.5 13.1885V19.1885H9V8.68848C9 8.48956 9.07902 8.2988 9.21967 8.15815C9.36032 8.01749 9.55109 7.93848 9.75 7.93848H12.75C12.9489 7.93848 13.1397 8.01749 13.2803 8.15815C13.421 8.2988 13.5 8.48956 13.5 8.68848V19.1885H15V4.18848C15 3.98956 15.079 3.7988 15.2197 3.65815C15.3603 3.51749 15.5511 3.43848 15.75 3.43848H19.5C19.6989 3.43848 19.8897 3.51749 20.0303 3.65815C20.171 3.7988 20.25 3.98956 20.25 4.18848V19.1885H21C21.1989 19.1885 21.3897 19.2675 21.5303 19.4081C21.671 19.5488 21.75 19.7396 21.75 19.9385Z" fill="#EE5F96"/>
</g>
</svg>
