<svg width="24" height="25" viewBox="0 0 24 25" fill="none" xmlns="http://www.w3.org/2000/svg">
<g id="Coins">
<path id="Vector" d="M17.25 8.83566V8.31348C17.25 5.96223 13.7034 4.18848 9 4.18848C4.29656 4.18848 0.75 5.96223 0.75 8.31348V12.0635C0.75 14.0219 3.21094 15.5782 6.75 16.0441V16.5635C6.75 18.9147 10.2966 20.6885 15 20.6885C19.7034 20.6885 23.25 18.9147 23.25 16.5635V12.8135C23.25 10.8729 20.8669 9.31473 17.25 8.83566ZM5.25 14.2075C3.41344 13.6947 2.25 12.85 2.25 12.0635V10.7444C3.015 11.2863 4.03969 11.7232 5.25 12.0166V14.2075ZM12.75 12.0166C13.9603 11.7232 14.985 11.2863 15.75 10.7444V12.0635C15.75 12.85 14.5866 13.6947 12.75 14.2075V12.0166ZM11.25 18.7075C9.41344 18.1947 8.25 17.35 8.25 16.5635V16.1725C8.49656 16.1819 8.74594 16.1885 9 16.1885C9.36375 16.1885 9.71906 16.1763 10.0678 16.1557C10.4552 16.2944 10.8499 16.412 11.25 16.5082V18.7075ZM11.25 14.5244C10.5051 14.6345 9.75302 14.6893 9 14.6885C8.24698 14.6893 7.49493 14.6345 6.75 14.5244V12.2941C7.49604 12.3913 8.24765 12.4395 9 12.4385C9.75235 12.4395 10.504 12.3913 11.25 12.2941V14.5244ZM17.25 19.0244C15.758 19.2432 14.242 19.2432 12.75 19.0244V16.7885C13.4958 16.8887 14.2475 16.9388 15 16.9385C15.7523 16.9395 16.504 16.8913 17.25 16.7941V19.0244ZM21.75 16.5635C21.75 17.35 20.5866 18.1947 18.75 18.7075V16.5166C19.9603 16.2232 20.985 15.7863 21.75 15.2444V16.5635Z" fill="#EE5F96"/>
</g>
</svg>
