<svg width="24" height="25" viewBox="0 0 24 25" fill="none" xmlns="http://www.w3.org/2000/svg">
<g id="ChatCircleDots">
<path id="Vector" d="M12.0001 2.68848C10.3167 2.68811 8.66201 3.12356 7.19691 3.95244C5.73182 4.78132 4.50628 5.9754 3.63959 7.41845C2.77289 8.86149 2.29457 10.5043 2.25117 12.1871C2.20777 13.8698 2.60077 15.5352 3.39193 17.021L2.32787 20.2132C2.23973 20.4775 2.22693 20.7611 2.29093 21.0322C2.35492 21.3034 2.49316 21.5514 2.69016 21.7484C2.88717 21.9454 3.13514 22.0836 3.4063 22.1476C3.67745 22.2116 3.96107 22.1988 4.22537 22.1107L7.41755 21.0466C8.72515 21.7421 10.174 22.1305 11.6541 22.1825C13.1343 22.2344 14.6068 21.9485 15.9599 21.3463C17.3131 20.7442 18.5112 19.8418 19.4635 18.7074C20.4158 17.5731 21.0971 16.2367 21.4558 14.7998C21.8145 13.3628 21.8411 11.863 21.5336 10.4143C21.2261 8.96548 20.5926 7.60579 19.6812 6.4384C18.7698 5.271 17.6044 4.32659 16.2735 3.67684C14.9426 3.02709 13.4811 2.68908 12.0001 2.68848ZM7.87505 13.5635C7.65255 13.5635 7.43504 13.4975 7.25004 13.3739C7.06503 13.2503 6.92084 13.0746 6.83569 12.869C6.75054 12.6634 6.72826 12.4372 6.77167 12.219C6.81508 12.0008 6.92222 11.8003 7.07956 11.643C7.23689 11.4856 7.43735 11.3785 7.65558 11.3351C7.8738 11.2917 8.1 11.314 8.30557 11.3991C8.51114 11.4843 8.68684 11.6285 8.81046 11.8135C8.93407 11.9985 9.00005 12.216 9.00005 12.4385C9.00005 12.7368 8.88153 13.023 8.67055 13.234C8.45957 13.4449 8.17342 13.5635 7.87505 13.5635ZM12.0001 13.5635C11.7775 13.5635 11.56 13.4975 11.375 13.3739C11.19 13.2503 11.0458 13.0746 10.9607 12.869C10.8755 12.6634 10.8533 12.4372 10.8967 12.219C10.9401 12.0008 11.0472 11.8003 11.2046 11.643C11.3619 11.4856 11.5623 11.3785 11.7806 11.3351C11.9988 11.2917 12.225 11.314 12.4306 11.3991C12.6361 11.4843 12.8118 11.6285 12.9355 11.8135C13.0591 11.9985 13.1251 12.216 13.1251 12.4385C13.1251 12.7368 13.0065 13.023 12.7955 13.234C12.5846 13.4449 12.2984 13.5635 12.0001 13.5635ZM16.1251 13.5635C15.9025 13.5635 15.685 13.4975 15.5 13.3739C15.315 13.2503 15.1708 13.0746 15.0857 12.869C15.0005 12.6634 14.9783 12.4372 15.0217 12.219C15.0651 12.0008 15.1722 11.8003 15.3296 11.643C15.4869 11.4856 15.6873 11.3785 15.9056 11.3351C16.1238 11.2917 16.35 11.314 16.5556 11.3991C16.7611 11.4843 16.9368 11.6285 17.0605 11.8135C17.1841 11.9985 17.2501 12.216 17.2501 12.4385C17.2501 12.7368 17.1315 13.023 16.9205 13.234C16.7096 13.4449 16.4234 13.5635 16.1251 13.5635Z" fill="#EE5F96"/>
</g>
</svg>
