<svg width="24" height="25" viewBox="0 0 24 25" fill="none" xmlns="http://www.w3.org/2000/svg">
<g id="LockKey">
<path id="Vector" d="M19.5 7.93848H16.5V5.68848C16.5 4.495 16.0259 3.35041 15.182 2.5065C14.3381 1.66258 13.1935 1.18848 12 1.18848C10.8065 1.18848 9.66193 1.66258 8.81802 2.5065C7.97411 3.35041 7.5 4.495 7.5 5.68848V7.93848H4.5C4.10218 7.93848 3.72064 8.09651 3.43934 8.37782C3.15804 8.65912 3 9.04065 3 9.43848V19.9385C3 20.3363 3.15804 20.7178 3.43934 20.9991C3.72064 21.2804 4.10218 21.4385 4.5 21.4385H19.5C19.8978 21.4385 20.2794 21.2804 20.5607 20.9991C20.842 20.7178 21 20.3363 21 19.9385V9.43848C21 9.04065 20.842 8.65912 20.5607 8.37782C20.2794 8.09651 19.8978 7.93848 19.5 7.93848ZM12.75 15.31V17.6885C12.75 17.8874 12.671 18.0782 12.5303 18.2188C12.3897 18.3595 12.1989 18.4385 12 18.4385C11.8011 18.4385 11.6103 18.3595 11.4697 18.2188C11.329 18.0782 11.25 17.8874 11.25 17.6885V15.31C10.7496 15.1331 10.3278 14.785 10.0593 14.3272C9.79072 13.8694 9.69265 13.3314 9.7824 12.8082C9.87216 12.2851 10.144 11.8106 10.5498 11.4685C10.9556 11.1264 11.4692 10.9387 12 10.9387C12.5308 10.9387 13.0444 11.1264 13.4502 11.4685C13.856 11.8106 14.1278 12.2851 14.2176 12.8082C14.3073 13.3314 14.2093 13.8694 13.9407 14.3272C13.6722 14.785 13.2504 15.1331 12.75 15.31ZM15 7.93848H9V5.68848C9 4.89283 9.31607 4.12977 9.87868 3.56716C10.4413 3.00455 11.2044 2.68848 12 2.68848C12.7956 2.68848 13.5587 3.00455 14.1213 3.56716C14.6839 4.12977 15 4.89283 15 5.68848V7.93848Z" fill="#EE5F96"/>
</g>
</svg>
