<svg width="24" height="25" viewBox="0 0 24 25" fill="none" xmlns="http://www.w3.org/2000/svg">
<g id="Cherries">
<path id="Vector" d="M16.7268 7.1885C16.4074 7.17836 16.0876 7.18995 15.7697 7.22319C15.2429 6.32309 14.5571 5.5261 13.7456 4.871C10.1981 2.01257 5.3484 2.66694 5.14403 2.696C4.97403 2.71981 4.81734 2.80121 4.70012 2.92662C4.5829 3.05203 4.51225 3.21385 4.49996 3.38507C4.49225 3.51976 4.52016 3.65411 4.5809 3.77459C4.64163 3.89506 4.73303 3.99741 4.8459 4.07132C6.47715 5.16632 7.22434 6.96913 7.53653 8.726C5.81981 8.90593 4.23703 9.73598 3.11289 11.0459C1.98875 12.3558 1.40849 14.0462 1.49116 15.7703C1.57382 17.4944 2.31314 19.1216 3.55744 20.3179C4.80173 21.5143 6.45667 22.1891 8.18272 22.2039C9.90878 22.2188 11.5751 21.5726 12.8398 20.3979C14.1045 19.2231 14.8717 17.6089 14.9841 15.8865C15.0964 14.164 14.5454 12.4639 13.4439 11.1348C12.3425 9.80577 10.7743 8.94859 9.0609 8.73913C8.76934 6.86881 8.11496 5.3135 7.12496 4.12944C8.68778 4.19694 10.9912 4.57757 12.81 6.04944C13.3526 6.48873 13.8266 7.00663 14.2162 7.586C14.0381 7.65069 13.8609 7.721 13.6865 7.80069C13.5913 7.84183 13.5051 7.90134 13.4329 7.97582C13.3606 8.0503 13.3038 8.13829 13.2656 8.23475C13.2104 8.38137 13.2025 8.54159 13.2431 8.69291C13.2836 8.84424 13.3705 8.97908 13.4915 9.0785C13.9631 9.46793 14.3903 9.90808 14.7656 10.391C14.7832 10.4138 14.8037 10.4343 14.8265 10.4519C15 10.5776 15.5465 10.9385 16.5 10.9385C17.639 10.9385 18.2043 10.4219 18.2278 10.3994L18.2193 10.4079C18.289 10.3382 18.3717 10.2829 18.4628 10.2452C18.5538 10.2075 18.6514 10.1881 18.75 10.1881C18.8485 10.1881 18.9461 10.2075 19.0371 10.2452C19.1282 10.2829 19.2109 10.3382 19.2806 10.4079C19.3503 10.4776 19.4055 10.5603 19.4433 10.6513C19.481 10.7424 19.5004 10.84 19.5004 10.9385C19.5004 11.037 19.481 11.1346 19.4433 11.2257C19.4055 11.3167 19.3503 11.3994 19.2806 11.4691C19.1812 11.5685 18.2597 12.4385 16.5 12.4385H16.349C16.3027 12.4358 16.2564 12.4446 16.2143 12.4642C16.1722 12.4837 16.1356 12.5134 16.1078 12.5505C16.0799 12.5877 16.0617 12.6311 16.0547 12.677C16.0477 12.7229 16.0522 12.7698 16.0678 12.8135C16.4379 13.9154 16.5708 15.0831 16.4577 16.24C16.3446 17.3968 15.9881 18.5167 15.4115 19.526C15.3052 19.7013 15.2716 19.9112 15.3178 20.111C15.3566 20.2633 15.4423 20.3995 15.5628 20.5004C15.6832 20.6013 15.8323 20.6619 15.989 20.6735C16.1559 20.6857 16.3256 20.6923 16.4925 20.6923C18.2827 20.7223 20.0115 20.04 21.2987 18.7954C22.5858 17.5508 23.3258 15.8459 23.3559 14.0557C23.386 12.2655 22.7037 10.5366 21.4591 9.24949C20.2145 7.96235 18.5096 7.22234 16.7193 7.19225L16.7268 7.1885ZM9.97684 11.8957L9.9684 11.9041C10.1091 11.7634 10.3 11.6843 10.499 11.6843C10.698 11.6843 10.8889 11.7634 11.0297 11.9041C11.1704 12.0449 11.2494 12.2357 11.2494 12.4348C11.2494 12.6338 11.1704 12.8246 11.0297 12.9654C10.9312 13.0685 10.0097 13.9385 8.24996 13.9385C6.49028 13.9385 5.56871 13.0685 5.46934 12.9691C5.39966 12.8994 5.34438 12.8167 5.30667 12.7257C5.26896 12.6346 5.24955 12.537 5.24955 12.4385C5.24955 12.2395 5.32861 12.0486 5.46934 11.9079C5.61007 11.7671 5.80094 11.6881 5.99996 11.6881C6.19899 11.6881 6.38986 11.7671 6.53059 11.9079L6.52215 11.8994C6.54559 11.9219 7.1109 12.4385 8.24996 12.4385C9.38903 12.4385 9.95434 11.9219 9.97778 11.8994L9.97684 11.8957Z" fill="#EE5F96"/>
</g>
</svg>
