<svg width="24" height="25" viewBox="0 0 24 25" fill="none" xmlns="http://www.w3.org/2000/svg">
<g id="time-filled-svgrepo-com (1) 1" clip-path="url(#clip0_853_20788)">
<path id="Vector" fill-rule="evenodd" clip-rule="evenodd" d="M13.8449 12.873L16.9252 14.6514C17.2259 14.825 17.3231 15.2195 17.1538 15.5127C16.9794 15.8148 16.603 15.924 16.2936 15.7454L13.1611 13.9368C12.8404 14.1859 12.4375 14.3342 12 14.3342C10.9536 14.3342 10.1053 13.4859 10.1053 12.4395C10.1053 11.6145 10.6325 10.9126 11.3684 10.6525V4.86482C11.3684 4.51362 11.6614 4.22893 12 4.22893C12.3488 4.22893 12.6316 4.52311 12.6316 4.86482V10.6525C13.3675 10.9126 13.8947 11.6145 13.8947 12.4395C13.8947 12.5886 13.8775 12.7338 13.8449 12.873ZM12 24.4395C18.6274 24.4395 24 19.0669 24 12.4395C24 5.81204 18.6274 0.439453 12 0.439453C5.37258 0.439453 0 5.81204 0 12.4395C0 19.0669 5.37258 24.4395 12 24.4395Z" fill="#EE5F96"/>
</g>
<defs>
<clipPath id="clip0_853_20788">
<rect width="24" height="24" fill="white" transform="translate(0 0.439453)"/>
</clipPath>
</defs>
</svg>
