<svg width="219" height="210" viewBox="0 0 219 210" fill="none" xmlns="http://www.w3.org/2000/svg">
<path d="M106.647 7.96151C107.545 5.19755 111.455 5.19758 112.353 7.96149L132.697 70.5725C134.437 75.9288 139.428 79.5553 145.06 79.5553H210.894C213.8 79.5553 215.008 83.2741 212.657 84.9823L159.397 123.678C154.84 126.988 152.934 132.856 154.674 138.212L175.018 200.823C175.916 203.587 172.752 205.886 170.401 204.178L117.141 165.482C112.585 162.171 106.415 162.171 101.859 165.482L48.5987 204.178C46.2476 205.886 43.0841 203.587 43.9822 200.823L64.3257 138.212C66.0661 132.856 64.1595 126.988 59.6032 123.678L6.34313 84.9823C3.99197 83.2741 5.20033 79.5553 8.10647 79.5553H73.9396C79.5715 79.5553 84.5629 75.9288 86.3033 70.5725L106.647 7.96151Z" stroke="#F7931A" stroke-opacity="0.06" stroke-width="10"/>
</svg>
