<svg width="15" height="14" viewBox="0 0 15 14" fill="none" xmlns="http://www.w3.org/2000/svg">
<path d="M13.6582 0.8125H1.2832C0.984835 0.8125 0.698686 0.931026 0.487708 1.142C0.27673 1.35298 0.158203 1.63913 0.158203 1.9375V12.0625C0.158203 12.3609 0.27673 12.647 0.487708 12.858C0.698686 13.069 0.984835 13.1875 1.2832 13.1875H13.6582C13.9566 13.1875 14.2427 13.069 14.4537 12.858C14.6647 12.647 14.7832 12.3609 14.7832 12.0625V1.9375C14.7832 1.63913 14.6647 1.35298 14.4537 1.142C14.2427 0.931026 13.9566 0.8125 13.6582 0.8125ZM13.6582 1.9375V9.16211L11.8252 7.32977C11.7207 7.22527 11.5967 7.14238 11.4601 7.08583C11.3236 7.02928 11.1773 7.00017 11.0296 7.00017C10.8818 7.00017 10.7355 7.02928 10.599 7.08583C10.4625 7.14238 10.3385 7.22527 10.234 7.32977L8.82773 8.73602L5.73398 5.64227C5.52303 5.43145 5.23699 5.31302 4.93875 5.31302C4.64051 5.31302 4.35447 5.43145 4.14352 5.64227L1.2832 8.50258V1.9375H13.6582ZM1.2832 10.0938L4.93945 6.4375L10.5645 12.0625H1.2832V10.0938ZM13.6582 12.0625H12.1556L9.62438 9.53125L11.0306 8.125L13.6582 10.7533V12.0625ZM8.5957 5.03125C8.5957 4.86437 8.64519 4.70124 8.7379 4.56249C8.83061 4.42373 8.96239 4.31559 9.11656 4.25173C9.27074 4.18787 9.44039 4.17116 9.60406 4.20371C9.76773 4.23627 9.91807 4.31663 10.0361 4.43463C10.1541 4.55263 10.2344 4.70297 10.267 4.86664C10.2995 5.03031 10.2828 5.19996 10.219 5.35414C10.1551 5.50831 10.047 5.64009 9.90822 5.7328C9.76946 5.82552 9.60633 5.875 9.43945 5.875C9.21568 5.875 9.00107 5.78611 8.84283 5.62787C8.6846 5.46964 8.5957 5.25503 8.5957 5.03125Z" fill="white"/>
</svg>
