<svg width="17" height="15" viewBox="0 0 17 15" fill="none" xmlns="http://www.w3.org/2000/svg">
<path d="M11.9863 0.8125C10.5344 0.8125 9.26313 1.43687 8.4707 2.49227C7.67828 1.43687 6.40703 0.8125 4.95508 0.8125C3.7993 0.813803 2.69123 1.27351 1.87397 2.09077C1.05671 2.90803 0.597006 4.0161 0.595703 5.17188C0.595703 10.0938 7.89344 14.0777 8.20422 14.2422C8.28613 14.2863 8.37769 14.3093 8.4707 14.3093C8.56371 14.3093 8.65528 14.2863 8.73719 14.2422C9.04797 14.0777 16.3457 10.0938 16.3457 5.17188C16.3444 4.0161 15.8847 2.90803 15.0674 2.09077C14.2502 1.27351 13.1421 0.813803 11.9863 0.8125ZM8.4707 13.1031C7.1868 12.355 1.7207 8.94695 1.7207 5.17188C1.72182 4.31441 2.06294 3.49238 2.66926 2.88606C3.27558 2.27974 4.09761 1.93862 4.95508 1.9375C6.32266 1.9375 7.47086 2.66594 7.95039 3.83594C7.99277 3.93911 8.06486 4.02735 8.15751 4.08945C8.25015 4.15155 8.35917 4.18471 8.4707 4.18471C8.58224 4.18471 8.69125 4.15155 8.7839 4.08945C8.87654 4.02735 8.94864 3.93911 8.99102 3.83594C9.47055 2.66383 10.6187 1.9375 11.9863 1.9375C12.8438 1.93862 13.6658 2.27974 14.2721 2.88606C14.8785 3.49238 15.2196 4.31441 15.2207 5.17188C15.2207 8.94133 9.7532 12.3543 8.4707 13.1031Z" fill="white"/>
</svg>
