<svg width="13" height="16" viewBox="0 0 13 16" fill="none" xmlns="http://www.w3.org/2000/svg">
<path d="M12.5 12.5H8M10.25 10.25V14.75M3.2616 9.5C3.97433 9.97385 4.82989 10.25 5.74992 10.25C6.2759 10.25 6.7808 10.1598 7.25 9.99395M5.375 14.75H1.7C1.27996 14.75 1.06994 14.75 0.909507 14.6683C0.768387 14.5963 0.653653 14.4817 0.581743 14.3405C0.5 14.1801 0.5 13.9701 0.5 13.55V11.75C0.5 10.5073 1.50736 9.5 2.75 9.5H3.125M8.75 4.25C8.75 5.90686 7.40682 7.25 5.75 7.25C4.09314 7.25 2.75 5.90686 2.75 4.25C2.75 2.59314 4.09314 1.25 5.75 1.25C7.40682 1.25 8.75 2.59314 8.75 4.25Z" stroke="white" stroke-linecap="round" stroke-linejoin="round"/>
</svg>
