<svg width="18" height="19" viewBox="0 0 18 19" fill="none" xmlns="http://www.w3.org/2000/svg">
<path d="M8.02707 1.98605C8.58771 1.50828 9.41229 1.50828 9.97293 1.98605L10.9382 2.80869C11.3387 3.14992 11.8365 3.35614 12.3609 3.39798L13.6252 3.49887C14.3595 3.55747 14.9425 4.14054 15.0011 4.8748L15.102 6.13908C15.1439 6.66349 15.3501 7.16134 15.6913 7.56175L16.5139 8.52707C16.9917 9.08771 16.9917 9.91229 16.5139 10.4729L15.6913 11.4382C15.3501 11.8387 15.1439 12.3365 15.102 12.8609L15.0011 14.1252C14.9425 14.8595 14.3595 15.4425 13.6252 15.5011L12.3609 15.602C11.8365 15.6439 11.3387 15.8501 10.9382 16.1913L9.97293 17.0139C9.41229 17.4917 8.58771 17.4917 8.02707 17.0139L7.06175 16.1913C6.66135 15.8501 6.1635 15.6439 5.63908 15.602L4.3748 15.5011C3.64054 15.4425 3.05747 14.8595 2.99887 14.1252L2.89798 12.8609C2.85614 12.3365 2.64992 11.8387 2.30869 11.4382L1.48605 10.4729C1.00828 9.91229 1.00828 9.08771 1.48605 8.52707L2.30869 7.56175C2.64992 7.16134 2.85614 6.6635 2.89798 6.13908L2.99887 4.8748C3.05747 4.14054 3.64054 3.55747 4.3748 3.49887L5.63908 3.39798C6.16349 3.35614 6.66134 3.14992 7.06175 2.80869L8.02707 1.98605Z" stroke="#EE5F96"/>
<path d="M13.1747 7.10697L7.67472 12.607C7.62682 12.655 7.5699 12.6932 7.50722 12.7192C7.44455 12.7452 7.37735 12.7586 7.30949 12.7586C7.24162 12.7586 7.17443 12.7452 7.11175 12.7192C7.04908 12.6932 6.99216 12.655 6.94425 12.607L4.538 10.2007C4.49004 10.1528 4.45199 10.0958 4.42604 10.0331C4.40008 9.97048 4.38672 9.90332 4.38672 9.83548C4.38672 9.76765 4.40008 9.70049 4.42604 9.63782C4.45199 9.57515 4.49004 9.51821 4.538 9.47025C4.58597 9.42229 4.64291 9.38424 4.70557 9.35828C4.76824 9.33233 4.83541 9.31896 4.90324 9.31896C4.97107 9.31896 5.03823 9.33233 5.1009 9.35828C5.16357 9.38424 5.22051 9.42229 5.26847 9.47025L7.30992 11.5117L12.4451 6.37736C12.542 6.28049 12.6734 6.22607 12.8103 6.22607C12.9473 6.22607 13.0787 6.28049 13.1756 6.37736C13.2724 6.47423 13.3269 6.6056 13.3269 6.74259C13.3269 6.87958 13.2724 7.01096 13.1756 7.10783L13.1747 7.10697Z" fill="#EE5F96"/>
</svg>
