<svg width="20" height="20" viewBox="0 0 20 20" fill="none" xmlns="http://www.w3.org/2000/svg">
<path d="M9.3748 10.0001C9.3748 10.2474 9.30149 10.489 9.16413 10.6946C9.02678 10.9002 8.83156 11.0604 8.60315 11.155C8.37474 11.2496 8.12341 11.2743 7.88093 11.2261C7.63846 11.1779 7.41573 11.0588 7.24091 10.884C7.0661 10.7092 6.94705 10.4865 6.89882 10.244C6.85058 10.0015 6.87534 9.75019 6.96995 9.52178C7.06456 9.29337 7.22477 9.09815 7.43033 8.9608C7.6359 8.82345 7.87757 8.75013 8.1248 8.75013C8.45632 8.75013 8.77426 8.88183 9.00868 9.11625C9.2431 9.35067 9.3748 9.66861 9.3748 10.0001ZM11.8748 8.75013C11.6276 8.75013 11.3859 8.82345 11.1803 8.9608C10.9748 9.09815 10.8146 9.29337 10.7199 9.52178C10.6253 9.75019 10.6006 10.0015 10.6488 10.244C10.697 10.4865 10.8161 10.7092 10.9909 10.884C11.1657 11.0588 11.3885 11.1779 11.6309 11.2261C11.8734 11.2743 12.1247 11.2496 12.3532 11.155C12.5816 11.0604 12.7768 10.9002 12.9141 10.6946C13.0515 10.489 13.1248 10.2474 13.1248 10.0001C13.1248 9.66861 12.9931 9.35067 12.7587 9.11625C12.5243 8.88183 12.2063 8.75013 11.8748 8.75013ZM18.4373 10.0001C18.4376 11.4454 18.0667 12.8666 17.36 14.1273C16.6534 15.3881 15.6347 16.4462 14.4017 17.2002C13.1687 17.9542 11.7627 18.3788 10.3184 18.4334C8.87416 18.488 7.4401 18.1707 6.1537 17.5119L3.62011 18.3595C3.3443 18.4525 3.048 18.4665 2.76463 18.4001C2.48125 18.3337 2.22205 18.1895 2.01624 17.9837C1.81043 17.7779 1.6662 17.5187 1.5998 17.2353C1.5334 16.9519 1.54747 16.6556 1.64042 16.3798L2.48495 13.8462C1.90502 12.7103 1.59017 11.4576 1.56407 10.1824C1.53797 8.90727 1.80129 7.64278 2.33425 6.48404C2.86721 5.32529 3.65593 4.30245 4.64111 3.49242C5.62629 2.68238 6.78229 2.10624 8.0222 1.8073C9.2621 1.50836 10.5536 1.4944 11.7997 1.76648C13.0458 2.03856 14.214 2.5896 15.2164 3.37816C16.2189 4.16672 17.0295 5.17228 17.5874 6.31924C18.1453 7.46619 18.4358 8.7247 18.4373 10.0001ZM16.5623 10.0001C16.5619 8.99353 16.33 8.0005 15.8844 7.09787C15.4389 6.19524 14.7916 5.40721 13.9928 4.79473C13.194 4.18225 12.265 3.76175 11.2776 3.56575C10.2903 3.36975 9.27108 3.4035 8.29887 3.6644C7.32666 3.9253 6.4275 4.40636 5.67095 5.07035C4.9144 5.73434 4.32073 6.56347 3.93588 7.49361C3.55102 8.42374 3.38529 9.42993 3.45151 10.4344C3.51773 11.4388 3.81413 12.4145 4.31777 13.2861C4.38433 13.401 4.42572 13.5288 4.43919 13.6609C4.45266 13.793 4.4379 13.9265 4.39589 14.0525L3.62011 16.3798L5.94745 15.604C6.04319 15.5722 6.14342 15.5558 6.24433 15.5556C6.40898 15.5559 6.57065 15.5995 6.71308 15.6822C7.71075 16.2595 8.84288 16.5638 9.99553 16.5645C11.1482 16.5653 12.2807 16.2624 13.2791 15.6864C14.2776 15.1104 15.1067 14.2816 15.683 13.2834C16.2594 12.2852 16.5626 11.1528 16.5623 10.0001Z" fill="#8F9AA7"/>
</svg>
