<svg width="20" height="20" viewBox="0 0 20 20" fill="none" xmlns="http://www.w3.org/2000/svg">
<path d="M4.99984 2.5H6.6665C7.24821 2.50351 7.81889 2.65918 8.32179 2.95156C8.82467 3.24394 9.24234 3.66287 9.53317 4.16667C9.83067 4.67196 10.2544 5.09123 10.7628 5.3834C11.2712 5.67558 11.8468 5.83065 12.4332 5.83333H14.9998C15.8839 5.83333 16.7318 6.18447 17.3568 6.80959C17.982 7.43471 18.3332 8.28261 18.3332 9.16667V14.1667C18.3332 15.0507 17.982 15.8985 17.3568 16.5237C16.7318 17.1487 15.8839 17.5 14.9998 17.5H4.99984C4.11578 17.5 3.26794 17.1487 2.64281 16.5237C2.01769 15.8985 1.6665 15.0507 1.6665 14.1667V5.83333C1.6665 4.94927 2.01769 4.10138 2.64281 3.47626C3.26794 2.85113 4.11578 2.5 4.99984 2.5Z" stroke="#8F9AA7" stroke-width="2" stroke-linecap="round" stroke-linejoin="round"/>
</svg>
