<svg width="16" height="16" viewBox="0 0 16 16" fill="none" xmlns="http://www.w3.org/2000/svg">
<path d="M2.13002 8.88624L1.82651 9.14489L2.13002 8.88624C1.74898 8.43911 1.74898 7.78147 2.13002 7.33433L2.78611 6.56445C3.05826 6.2451 3.22272 5.84804 3.2561 5.4298L3.33656 4.42148C3.3833 3.83587 3.84832 3.37085 4.43393 3.32411L5.44225 3.24365C5.8605 3.21027 6.25755 3.04581 6.5769 2.77366L7.34679 2.11757C7.79392 1.73652 8.45156 1.73652 8.89869 2.11757L9.66858 2.77366C9.98792 3.04581 10.385 3.21027 10.8032 3.24365L11.8115 3.32411C12.3972 3.37085 12.8622 3.83587 12.9089 4.42148L12.9894 5.4298C13.0228 5.84804 13.1872 6.2451 13.4594 6.56445L14.1155 7.33433C14.4965 7.78147 14.4965 8.43911 14.1155 8.88624L13.4594 9.65613C13.1872 9.97547 13.0228 10.3725 12.9894 10.7908L12.9089 11.7991C12.8622 12.3847 12.3972 12.8497 11.8116 12.8965L10.8032 12.9769C10.385 13.0103 9.98792 13.1748 9.66858 13.4469L8.89869 14.103C8.45156 14.4841 7.79392 14.484 7.34679 14.103L6.5769 13.4469C6.25755 13.1748 5.8605 13.0103 5.44225 12.9769L4.43393 12.8965C3.84832 12.8497 3.3833 12.3847 3.33656 11.7991L3.2561 10.7908C3.22272 10.3725 3.05826 9.97547 2.78611 9.65613L2.13002 8.88624Z" stroke="white" stroke-width="0.797546"/>
<path d="M11.4516 6.20158L7.06508 10.5881C7.02688 10.6264 6.98148 10.6568 6.93149 10.6776C6.88151 10.6983 6.82792 10.709 6.77379 10.709C6.71967 10.709 6.66608 10.6983 6.61609 10.6776C6.5661 10.6568 6.52071 10.6264 6.4825 10.5881L4.56341 8.66899C4.52515 8.63073 4.49481 8.58532 4.47411 8.53534C4.4534 8.48536 4.44275 8.43179 4.44275 8.37769C4.44275 8.3236 4.4534 8.27003 4.47411 8.22005C4.49481 8.17007 4.52515 8.12466 4.56341 8.0864C4.60166 8.04815 4.64707 8.01781 4.69705 7.9971C4.74703 7.9764 4.8006 7.96575 4.8547 7.96575C4.90879 7.96575 4.96236 7.9764 5.01234 7.9971C5.06232 8.01781 5.10774 8.04815 5.14599 8.0864L6.77413 9.71455L10.8697 5.61968C10.9469 5.54242 11.0517 5.49902 11.161 5.49902C11.2702 5.49902 11.375 5.54242 11.4523 5.61968C11.5295 5.69694 11.5729 5.80172 11.5729 5.91097C11.5729 6.02023 11.5295 6.12501 11.4523 6.20226L11.4516 6.20158Z" fill="white"/>
</svg>
