<svg width="20" height="20" viewBox="0 0 20 20" fill="none" xmlns="http://www.w3.org/2000/svg">
<path d="M7.166 4.16675C7.9977 4.16675 8.82108 4.33261 9.58933 4.65497C10.3576 4.97732 11.0557 5.4497 11.6436 6.04545C12.2318 6.64096 12.698 7.34808 13.0164 8.1265C13.3347 8.90496 13.4985 9.73901 13.4985 10.5813C13.4985 13.1757 11.9556 15.5146 9.58933 16.5073C7.22303 17.5001 4.49934 16.9514 2.68837 15.1168C0.877409 13.2823 0.335617 10.5234 1.31559 8.1265C2.29581 5.72957 4.60484 4.16675 7.166 4.16675ZM7.166 12.5053C7.41551 12.5056 7.66264 12.4561 7.89338 12.3596C8.12411 12.2631 8.33346 12.1213 8.51002 11.9425C8.68658 11.7636 8.8263 11.5515 8.92183 11.3179C9.01717 11.0842 9.0661 10.8338 9.06583 10.581C9.06583 9.80261 8.60294 9.10101 7.89314 8.80314C7.18334 8.50526 6.36614 8.66992 5.82292 9.22031C5.27971 9.77069 5.11717 10.5983 5.41111 11.3174C5.70506 12.0366 6.39798 12.5053 7.16624 12.5053H7.166Z" fill="#00AEEF"/>
<path d="M14.2832 8.9774C15.8922 9.44641 17.7913 8.9774 17.7913 8.9774C17.2402 11.4149 15.4923 12.9415 12.972 13.1272C12.729 13.6986 12.405 14.2311 12.01 14.7081C11.6155 15.1846 11.1542 15.6005 10.6408 15.9425C10.1276 16.2843 9.56795 16.5486 8.97934 16.727C8.39074 16.9053 7.7798 16.9955 7.16553 16.9953L9.06536 10.8791C11.0182 4.59256 12.0193 4.16675 16.6507 4.16675H19.8306C19.2988 6.54015 17.4653 8.35308 14.2834 8.9774H14.2832Z" fill="#008CCF"/>
</svg>
