<svg width="20" height="20" viewBox="0 0 20 20" fill="none" xmlns="http://www.w3.org/2000/svg">
<rect width="20" height="20" rx="2" fill="#3F3456"/>
<path fill-rule="evenodd" clip-rule="evenodd" d="M3.63623 14.4702C3.63623 14.5118 3.66999 14.5455 3.71163 14.5455H5.8307C5.87235 14.5455 5.9061 14.5118 5.9061 14.4702V11.0492H8.47047C8.51211 11.0492 8.54587 11.0155 8.54587 10.9739V9.15925C8.54587 9.11764 8.51211 9.08391 8.47047 9.08391H5.9061V7.41992H9.01538C9.05702 7.41992 9.09078 7.38619 9.09078 7.34458V5.52992C9.09078 5.48832 9.05702 5.45459 9.01538 5.45459H3.71163C3.66999 5.45459 3.63623 5.48832 3.63623 5.52992V14.4702Z" fill="white"/>
<path d="M18.1621 13.067C18.1865 13.0408 18.1884 13.0031 18.1665 12.9752L16.9551 11.4266C16.9406 11.408 16.9175 11.3963 16.8924 11.3948C16.8671 11.3932 16.8425 11.402 16.8253 11.4186L16.8137 11.4293C16.8058 11.4367 16.7937 11.4478 16.7777 11.4619C16.7456 11.4901 16.698 11.5308 16.6361 11.5797C16.5123 11.6776 16.3322 11.8083 16.1076 11.939C15.6572 12.2009 15.0338 12.4592 14.3294 12.4592C12.6123 12.4592 11.6945 11.1871 11.6945 9.93351C11.6945 9.32556 11.908 8.72717 12.3417 8.28188C12.7738 7.83814 13.4299 7.5409 14.3294 7.5409C14.9757 7.5409 15.5635 7.75539 15.9925 7.97275C16.2064 8.08117 16.3795 8.1896 16.499 8.27079C16.5586 8.31136 16.6048 8.34506 16.6359 8.36848C16.6514 8.38019 16.6631 8.38932 16.6709 8.39544L16.6795 8.40231L16.6816 8.40395C16.7 8.41908 16.7256 8.42643 16.7503 8.42329C16.775 8.42015 16.7969 8.40725 16.81 8.3881L17.9002 6.79119C17.9196 6.76274 17.9159 6.72618 17.891 6.70137L17.8897 6.70006L17.8866 6.69701C17.8839 6.69441 17.8799 6.69069 17.8749 6.68592C17.8647 6.67638 17.8498 6.66266 17.83 6.64534C17.7904 6.61071 17.7317 6.56171 17.654 6.50314C17.4986 6.38603 17.2667 6.23051 16.9596 6.07521C16.3453 5.76444 15.4295 5.45459 14.2217 5.45459C11.2828 5.45459 9.09082 7.42302 9.09082 9.98189C9.09082 12.5877 11.1601 14.5455 14.2217 14.5455C15.4989 14.5455 16.4829 14.177 17.1476 13.8084C17.48 13.6242 17.7326 13.4397 17.9025 13.301C17.9876 13.2317 18.0519 13.1736 18.0952 13.1328C18.1169 13.1123 18.1334 13.0961 18.1445 13.085C18.1502 13.0793 18.1544 13.0749 18.1572 13.0719L18.1607 13.0685L18.1621 13.067Z" fill="white"/>
</svg>
