<svg width="154" height="187" viewBox="0 0 154 187" fill="none" xmlns="http://www.w3.org/2000/svg">
<path d="M40.4665 162.061C39.6559 162.086 38.889 162.416 38.3278 162.996L32.13 169.193C29.0872 172.124 33.5891 176.613 36.5134 173.576L42.7112 167.379C44.7314 165.409 43.3222 162.061 40.4665 162.061ZM21.7609 162.061C20.9503 162.086 20.1834 162.416 19.6222 162.996L13.4244 169.193C10.3816 172.124 14.8834 176.613 17.8077 173.576L24.0055 167.379C26.0257 165.409 24.548 162.061 21.7609 162.061ZM21.7609 143.356C20.9503 143.381 20.1834 143.712 19.6222 144.292L13.4244 150.489C10.3816 153.419 14.8834 157.908 17.8077 154.872L24.0055 148.675C26.0257 146.705 24.5792 143.356 21.7609 143.356ZM40.5288 118.417C38.8142 118.442 37.3925 119.82 37.4112 121.535V124.652C37.4112 138.387 48.6159 149.591 62.3521 149.591H65.4697C69.7096 149.591 69.4602 143.356 65.4697 143.356H62.3521C51.9829 143.356 43.6464 135.021 43.6464 124.652V121.535C43.6651 119.776 42.2747 118.392 40.5288 118.417ZM130.939 31.1302C117.203 31.1302 105.999 42.3341 105.999 56.0694C105.999 69.8046 117.203 81.0085 130.939 81.0085C144.675 81.0085 155.88 69.8046 155.88 56.0694C155.88 42.3341 144.675 31.1302 130.939 31.1302ZM130.939 37.365C141.308 37.365 149.645 45.7009 149.645 56.0694C149.645 66.4378 141.308 74.7737 130.939 74.7737C120.57 74.7737 112.234 66.4378 112.234 56.0694C112.234 45.7009 120.57 37.365 130.939 37.365ZM170.265 0.0996386C165.164 -0.243275 159.104 0.305387 152.395 1.64587C138.977 4.32683 122.921 10.2125 107.564 19.0783C76.8177 36.8226 55.1442 63.7382 37.7043 101.521C34.5243 108.417 25.1715 118.841 17.6706 122.8C13.917 124.783 11.186 125.007 9.62716 124.016C8.06212 123.031 6.23521 119.839 6.23521 112.182C6.23521 105.218 9.2281 93.6215 13.3745 84.2132C15.4446 79.506 17.8015 75.2975 20.0337 72.4606C22.2659 69.6113 24.336 68.5327 24.9408 68.5327C26.5869 68.5327 27.4786 68.9692 28.2767 69.6924C29.0872 70.4032 29.7357 71.5005 30.2096 72.7474C31.1324 75.2226 31.176 77.8849 31.176 77.8849C31.1137 82.0996 37.4736 82.0996 37.4112 77.8849C37.4112 77.8849 37.4549 74.3124 36.0395 70.5528C35.3411 68.6824 34.25 66.6623 32.4231 65.035C30.5899 63.414 27.9711 62.2917 24.9408 62.2917C20.8692 62.2917 17.8763 65.1098 15.1391 68.6013C12.3956 72.0928 9.88904 76.6442 7.6693 81.6944C3.24231 91.7698 0 103.554 0 112.182C0 120.811 1.95162 126.535 6.28509 129.278C10.6186 132.022 15.8873 130.8 20.5824 128.318C29.9851 123.361 39.3504 112.831 43.3596 104.127C60.4379 67.1049 81.1824 41.5111 110.675 24.4901C125.434 15.9672 140.978 10.2935 153.617 7.76843C159.933 6.50901 165.526 6.0414 169.828 6.33443C174.131 6.62123 176.999 7.7809 178.121 8.90316C179.243 10.0254 180.397 12.881 180.69 17.183C180.971 21.485 180.503 27.0838 179.243 33.3934C176.718 46.0376 171.044 61.5747 162.521 76.3387C145.499 105.829 119.897 126.566 82.8659 143.656C74.174 147.671 63.6427 157.029 58.6858 166.425C56.2041 171.12 54.9758 176.382 57.7255 180.715C60.469 185.049 66.2054 187 74.8225 187C83.4458 187 95.2303 183.758 105.313 179.331C110.344 177.112 114.915 174.593 118.394 171.862C121.886 169.119 124.704 166.126 124.704 162.061C124.704 159.031 123.582 156.412 121.961 154.579C120.339 152.752 118.326 151.661 116.449 150.963C112.689 149.548 109.116 149.591 109.116 149.591C104.901 149.529 104.901 155.888 109.116 155.826C109.116 155.826 111.779 155.87 114.254 156.799C115.501 157.266 116.598 157.921 117.309 158.731C118.026 159.523 118.469 160.415 118.469 162.061C118.469 162.666 117.39 164.742 114.541 166.968C111.704 169.2 107.495 171.556 102.794 173.626C93.3784 177.773 81.781 180.765 74.8225 180.765C67.1532 180.765 63.9732 178.938 62.9881 177.38C61.9904 175.821 62.2211 173.078 64.2039 169.337C68.1633 161.824 78.5885 152.478 85.4784 149.298C123.264 131.859 150.181 110.187 167.933 79.4498C176.799 64.0935 182.679 48.039 185.36 34.6217C186.695 27.9006 187.243 21.8404 186.9 16.7465C186.551 11.6527 185.404 7.38188 182.511 4.48893C179.618 1.58975 175.34 0.448787 170.252 0.0996386H170.265Z" fill="#EE5F96"/>
</svg>
