<svg width="0" height="0" class="hidden">
  <symbol fill="none" xmlns="http://www.w3.org/2000/svg" viewBox="0 0 20 20" id="email">
    <g id="email-1-svgrepo-com 1">
      <path id="Vector" fill-rule="evenodd" clip-rule="evenodd" d="M3.125 4.375L2.5 5V15L3.125 15.625H16.875L17.5 15V5L16.875 4.375H3.125ZM3.75 6.41292V14.375H16.25V6.41271L9.99992 12.0947L3.75 6.41292ZM15.2583 5.625H4.74155L9.99992 10.4053L15.2583 5.625Z" fill="#FFC107"></path>
    </g>
  </symbol>
  <symbol fill="none" xmlns="http://www.w3.org/2000/svg" viewBox="0 0 20 20" id="info">
    <g id="price-tag-euro-svgrepo-com 1">
      <circle id="Ellipse 24" cx="10" cy="10" r="9.5" stroke="#EE5F96"></circle>
      <path id="i" d="M9.26352 16V7.96799H10.5595V16H9.26352ZM9.10352 6.14399V4.68799H10.7035V6.14399H9.10352Z" fill="#EE5F96"></path>
    </g>
  </symbol>
  <symbol fill="none" xmlns="http://www.w3.org/2000/svg" viewBox="0 0 21 21" id="label">
    <g id="price-tag-euro-svgrepo-com 1">
      <path id="Vector" d="M8.63055 19.4551L1.72433 12.5489C1.53244 12.357 1.42463 12.0968 1.42463 11.8254C1.42463 11.554 1.53244 11.2937 1.72433 11.1018L10.0404 2.78581C10.0897 2.73604 10.1489 2.69708 10.2141 2.67142C10.2793 2.64576 10.3492 2.63396 10.4192 2.63676L17.5149 2.87587C17.6414 2.88194 17.7611 2.93492 17.8507 3.02449C17.9402 3.11406 17.9932 3.23378 17.9993 3.3603L18.5458 10.7385C18.5504 10.8115 18.5396 10.8847 18.5139 10.9532C18.4882 11.0217 18.4483 11.084 18.3968 11.136L10.0683 19.4645C9.87559 19.6523 9.61663 19.7566 9.34752 19.7549C9.07841 19.7531 8.82082 19.6454 8.63055 19.4551Z" stroke="#4CAF50" stroke-width="1.5" stroke-linecap="round"></path>
      <circle id="Ellipse 23" cx="15" cy="6" r="1" fill="#4CAF50"></circle>
    </g>
  </symbol>
  <symbol fill="none" xmlns="http://www.w3.org/2000/svg" viewBox="0 0 20 20" id="star-empty">
    <g id="price-tag-euro-svgrepo-com 1">
      <path id="Star 2" d="M9.76905 1.51601C9.85431 1.31031 10.1457 1.31031 10.2309 1.51601L12.2396 6.36236C12.4915 6.97002 13.0628 7.38513 13.7186 7.43688L18.9484 7.84964C19.1704 7.86716 19.2605 8.14428 19.0912 8.28893L15.1027 11.6969C14.6026 12.1242 14.3844 12.7959 14.5378 13.4355L15.7614 18.537C15.8133 18.7535 15.5776 18.9248 15.3877 18.8085L10.914 16.0683C10.3531 15.7248 9.64689 15.7248 9.08596 16.0683L4.61229 18.8085C4.42241 18.9248 4.18668 18.7535 4.23861 18.537L5.46217 13.4355C5.61559 12.7959 5.39735 12.1242 4.89726 11.6969L0.908826 8.28893C0.739536 8.14428 0.829577 7.86716 1.05156 7.84964L6.28143 7.43688C6.93718 7.38513 7.50852 6.97002 7.76038 6.36236L9.76905 1.51601Z" fill="white" fill-opacity="0.06" stroke="#F7931A" stroke-width="1.5"></path>
    </g>
  </symbol>
  <symbol fill="none" xmlns="http://www.w3.org/2000/svg" viewBox="0 0 20 20" id="tag">
    <g id="price-tag-euro-svgrepo-com 1">
      <path id="@" d="M10.208 18C8.97242 18 7.85028 17.8115 6.84161 17.4344C5.83294 17.0696 4.96927 16.5405 4.25059 15.8472C3.53191 15.1539 2.97715 14.3208 2.58629 13.3478C2.19543 12.3626 2 11.268 2 10.0639C2 8.85975 2.20173 7.76511 2.6052 6.77993C3.00867 5.79475 3.58865 4.94945 4.34515 4.24401C5.10165 3.52642 5.99685 2.97301 7.03073 2.58381C8.06462 2.1946 9.20567 2 10.4539 2C11.9669 2 13.2845 2.27974 14.4066 2.83922C15.5414 3.39871 16.424 4.18928 17.0544 5.21095C17.6848 6.22045 18 7.40631 18 8.76853C18 9.81452 17.8424 10.7267 17.5272 11.5051C17.212 12.2835 16.777 12.8856 16.2222 13.3113C15.6675 13.737 15.0118 13.9498 14.2553 13.9498C13.4988 13.9498 12.9251 13.7431 12.5343 13.3295C12.1434 12.9038 11.9795 12.3322 12.0426 11.6146L12.383 11.7058C12.0552 12.4356 11.595 12.9951 11.0024 13.3843C10.4224 13.7613 9.79827 13.9498 9.13002 13.9498C8.13396 13.9498 7.35855 13.6579 6.80378 13.0741C6.26162 12.4781 5.99054 11.6632 5.99054 10.6294C5.99054 9.72938 6.16706 8.93273 6.52009 8.23945C6.88574 7.53402 7.38377 6.9867 8.01418 6.59749C8.6446 6.19612 9.36328 5.99544 10.1702 5.99544C10.8889 5.99544 11.4689 6.15963 11.9102 6.48803C12.3641 6.81642 12.6604 7.2786 12.7991 7.87457H12.5721L12.8936 6.15963H14.1418L13.2719 10.8848C13.2467 11.0429 13.2214 11.195 13.1962 11.3409C13.1836 11.4869 13.1773 11.6207 13.1773 11.7423C13.1773 12.1437 13.2719 12.4477 13.461 12.6545C13.6627 12.8613 13.959 12.9647 14.3499 12.9647C14.8542 12.9647 15.2955 12.7883 15.6738 12.4356C16.052 12.0829 16.3483 11.5964 16.5626 10.9761C16.777 10.3436 16.8842 9.60775 16.8842 8.76853C16.8842 7.60091 16.6194 6.59141 16.0898 5.74002C15.5603 4.87647 14.8101 4.21361 13.8392 3.75143C12.881 3.27708 11.7526 3.03991 10.4539 3.03991C9.00394 3.03991 7.7305 3.33181 6.63357 3.91562C5.54925 4.49943 4.70449 5.32041 4.09929 6.37856C3.5067 7.42455 3.2104 8.65298 3.2104 10.0639C3.2104 11.4991 3.49409 12.7336 4.06147 13.7674C4.62884 14.8012 5.43578 15.5918 6.48227 16.1391C7.54137 16.6986 8.78329 16.9783 10.208 16.9783C11.2545 16.9783 12.2065 16.8202 13.0638 16.504C13.9212 16.1999 14.6273 15.7621 15.182 15.1904L15.8061 16.0844C15.1883 16.7047 14.3877 17.179 13.4043 17.5074C12.4334 17.8358 11.368 18 10.208 18ZM9.30024 12.8917C9.88022 12.8917 10.3972 12.7336 10.8511 12.4173C11.305 12.0889 11.658 11.6389 11.9102 11.0673C12.1749 10.4956 12.3073 9.84493 12.3073 9.11517C12.3073 8.42189 12.1497 7.90498 11.8345 7.56442C11.5193 7.22387 11.0213 7.05359 10.3404 7.05359C9.76044 7.05359 9.23719 7.20563 8.77068 7.50969C8.31678 7.81376 7.95745 8.23337 7.69267 8.76853C7.4279 9.30369 7.29551 9.92398 7.29551 10.6294C7.29551 11.3592 7.46572 11.9187 7.80615 12.3079C8.15918 12.6971 8.65721 12.8917 9.30024 12.8917Z" fill="#9747FF"></path>
    </g>
  </symbol>
  <symbol fill="none" xmlns="http://www.w3.org/2000/svg" viewBox="0 0 20 20" id="chat">
    <g id="ChatCircleDots">
      <path id="Vector" d="M9.3748 10.0001C9.3748 10.2474 9.30149 10.489 9.16413 10.6946C9.02678 10.9002 8.83156 11.0604 8.60315 11.155C8.37474 11.2496 8.12341 11.2743 7.88093 11.2261C7.63846 11.1779 7.41573 11.0588 7.24091 10.884C7.0661 10.7092 6.94705 10.4865 6.89882 10.244C6.85058 10.0015 6.87534 9.75019 6.96995 9.52178C7.06456 9.29337 7.22477 9.09815 7.43033 8.9608C7.6359 8.82345 7.87757 8.75013 8.1248 8.75013C8.45632 8.75013 8.77426 8.88183 9.00868 9.11625C9.2431 9.35067 9.3748 9.66861 9.3748 10.0001ZM11.8748 8.75013C11.6276 8.75013 11.3859 8.82345 11.1803 8.9608C10.9748 9.09815 10.8146 9.29337 10.7199 9.52178C10.6253 9.75019 10.6006 10.0015 10.6488 10.244C10.697 10.4865 10.8161 10.7092 10.9909 10.884C11.1657 11.0588 11.3885 11.1779 11.6309 11.2261C11.8734 11.2743 12.1247 11.2496 12.3532 11.155C12.5816 11.0604 12.7768 10.9002 12.9141 10.6946C13.0515 10.489 13.1248 10.2474 13.1248 10.0001C13.1248 9.66861 12.9931 9.35067 12.7587 9.11625C12.5243 8.88183 12.2063 8.75013 11.8748 8.75013ZM18.4373 10.0001C18.4376 11.4454 18.0667 12.8666 17.36 14.1273C16.6534 15.3881 15.6347 16.4462 14.4017 17.2002C13.1687 17.9542 11.7627 18.3788 10.3184 18.4334C8.87416 18.488 7.4401 18.1707 6.1537 17.5119L3.62011 18.3595C3.3443 18.4525 3.048 18.4665 2.76463 18.4001C2.48125 18.3337 2.22205 18.1895 2.01624 17.9837C1.81043 17.7779 1.6662 17.5187 1.5998 17.2353C1.5334 16.9519 1.54747 16.6556 1.64042 16.3798L2.48495 13.8462C1.90502 12.7103 1.59017 11.4576 1.56407 10.1824C1.53797 8.90727 1.80129 7.64278 2.33425 6.48404C2.86721 5.32529 3.65593 4.30245 4.64111 3.49242C5.62629 2.68238 6.78229 2.10624 8.0222 1.8073C9.2621 1.50836 10.5536 1.4944 11.7997 1.76648C13.0458 2.03856 14.214 2.5896 15.2164 3.37816C16.2189 4.16672 17.0295 5.17228 17.5874 6.31924C18.1453 7.46619 18.4358 8.7247 18.4373 10.0001ZM16.5623 10.0001C16.5619 8.99353 16.33 8.0005 15.8844 7.09787C15.4389 6.19524 14.7916 5.40721 13.9928 4.79473C13.194 4.18225 12.265 3.76175 11.2776 3.56575C10.2903 3.36975 9.27108 3.4035 8.29887 3.6644C7.32666 3.9253 6.4275 4.40636 5.67095 5.07035C4.9144 5.73434 4.32073 6.56347 3.93588 7.49361C3.55102 8.42374 3.38529 9.42993 3.45151 10.4344C3.51773 11.4388 3.81413 12.4145 4.31777 13.2861C4.38433 13.401 4.42572 13.5288 4.43919 13.6609C4.45266 13.793 4.4379 13.9265 4.39589 14.0525L3.62011 16.3798L5.94745 15.604C6.04319 15.5722 6.14342 15.5558 6.24433 15.5556C6.40898 15.5559 6.57065 15.5995 6.71308 15.6822C7.71075 16.2595 8.84288 16.5638 9.99553 16.5645C11.1482 16.5653 12.2807 16.2624 13.2791 15.6864C14.2776 15.1104 15.1067 14.2816 15.683 13.2834C16.2594 12.2852 16.5626 11.1528 16.5623 10.0001Z" fill="#8F9AA7"></path>
    </g>
  </symbol>
  <symbol fill="none" xmlns="http://www.w3.org/2000/svg" viewBox="0 0 20 20" id="plus">
    <g id="price-tag-euro-svgrepo-com 1">
      <path id="+" d="M9.50397 15V5H10.496V15H9.50397ZM5 10.496V9.50397H15V10.496H5Z" fill="#2C95FF"></path>
      <circle id="Ellipse 24" cx="10" cy="10" r="9.5" stroke="#2C95FF"></circle>
    </g>
  </symbol>
</svg>