<svg xmlns="http://www.w3.org/2000/svg" width="33" height="43" viewBox="0 0 33 43" fill="none">
  <path d="M2.66277 18.9445C2.50157 19.3532 2.84878 19.7723 3.6176 20.0448C4.07641 20.2125 4.70882 20.202 5.29163 20.0867C6.17205 19.9086 7.17647 19.4579 7.17647 19.4579C7.17647 19.4579 6.38286 18.9969 5.88684 18.4624C5.35363 17.8965 4.32441 16.2513 3.34479 16.9534C2.67517 17.4354 3.8284 18.4624 3.8284 18.4624C3.8284 18.4624 2.82398 18.5462 2.66277 18.9445Z" fill="#EE5F96"/>
  <path d="M4.96922 14.8366C4.73362 15.7273 4.75842 15.7588 6.25885 16.5552C5.88684 15.8531 5.68844 15.2348 4.96922 14.8366Z" fill="#EE5F96"/>
  <path d="M8.72651 13.6839C8.93731 13.8096 9.16051 13.9039 8.87531 14.0192C9.11091 14.1449 9.01171 14.4174 9.21012 14.5641C9.59452 14.8366 10.0161 15.0462 10.4997 15.13C10.9338 15.2034 11.4174 15.3081 11.8266 15.2034C12.1986 15.109 12.4714 15.1824 12.7814 15.2767C13.2774 15.4234 13.7734 15.5701 14.2694 15.7168C14.2694 15.654 14.2446 15.6225 14.2198 15.6016C13.637 15.2453 12.9922 14.9519 12.4714 14.5012C12.4218 14.4593 12.3102 14.4488 12.2234 14.4279C11.591 14.3126 11.0082 14.103 10.4501 13.8306C10.3385 13.7782 10.2145 13.7258 10.3757 13.6105C10.9958 13.1494 11.5538 12.6359 12.273 12.2692C13.0666 11.8709 13.7114 12.0386 14.0834 12.7617C14.443 13.4743 14.8026 14.1869 14.9638 14.9623C14.9762 14.9204 15.0134 14.8785 15.0134 14.8366C14.9886 13.8934 14.8646 12.9713 14.4926 12.0805C14.3686 11.7871 14.1082 11.5985 13.7362 11.5461C13.4138 11.5146 13.0914 11.4937 12.769 11.4623C12.1242 11.3994 11.6158 11.5985 11.1694 11.9653C10.9462 12.1539 10.7849 12.3739 10.8222 12.6464C10.8842 13.2333 10.3261 13.4428 9.94173 13.7572C9.86733 13.8201 9.75573 13.7677 9.65653 13.7467C9.40852 13.6943 9.22252 13.5162 8.96211 13.4428C8.94971 13.5581 9.21012 13.7467 8.72651 13.6839Z" fill="#EE5F96"/>
  <path d="M28.5669 0.333252C22.528 0.343731 18.3615 0.616193 15.2118 2.05185C13.9098 2.62822 12.7318 3.38272 11.7274 4.27346C11.4918 4.47257 11.2934 4.6612 11.1322 4.82886C11.095 4.87078 11.0578 4.9127 11.0206 4.94414C10.9958 4.9651 10.9834 4.98605 10.9586 5.00701C10.3633 5.62529 9.85493 6.29596 9.42092 7.00855C9.16052 7.37533 8.94971 7.66875 8.88771 7.74211C8.06929 9.17777 6.33325 10.1523 4.32441 10.1523C3.22079 10.1523 2.20396 9.85892 1.36075 9.35592C1.01354 9.79605 0.802734 10.32 0.802734 10.8964C0.802734 12.4159 2.43957 13.6105 4.21281 13.7572C5.22963 13.841 5.98605 13.9354 7.23847 13.5895C8.2429 13.3171 9.24732 12.7512 9.60693 12.1748C10.5989 10.5715 11.6778 8.83195 15.2862 8.39182C16.0675 8.29751 18.1879 8.4547 19.3535 9.05202C20.6804 9.72269 21.3748 10.3619 21.6352 10.8649C21.3748 10.9383 21.0524 11.0955 20.9904 11.1269C19.8371 11.6823 18.8079 12.3425 18.2747 13.9878C17.9895 14.8785 18.1383 16.0207 18.7707 17.1001C19.2667 17.9594 18.7087 19.9819 16.2535 19.4999C16.1791 19.4894 16.2535 19.7828 16.2783 19.8352C16.3651 20.0867 16.8363 20.8307 18.1011 20.8831C18.6467 20.9041 18.9443 20.8517 19.3659 20.6631C20.6184 20.0762 20.4572 19.2903 20.3332 18.6301C20.296 18.41 20.2712 18.19 20.2588 17.9594C20.2464 17.7603 20.2464 17.5612 20.2588 17.3516C20.2712 16.922 20.4076 16.3875 20.6556 15.8321C20.916 15.2348 21.288 14.6899 21.7592 14.2078C22.3668 13.5686 23.1852 13.0027 24.202 12.6464C24.202 12.6464 24.202 12.6464 24.2144 12.6464C24.2516 12.6359 24.9957 12.3425 25.7645 12.2587C26.0993 12.2168 26.4589 12.1853 26.8061 12.1853C27.0045 12.1853 32.2374 12.2168 32.2374 12.2168V0.333252C32.2374 0.333252 29.9558 0.333252 28.5669 0.333252Z" fill="#EE5F96"/>
  <path d="M26.8433 23.8383H22.342C21.0772 23.8383 19.8247 23.9745 18.6343 24.226C16.1295 24.7081 13.8354 25.7246 11.9382 27.1917C11.4298 27.0449 10.6609 26.4162 12.7938 25.2844C14.6538 24.2889 14.9514 21.9415 14.7902 22.0673C12.211 23.9536 11.9258 24.2365 9.17292 24.006C8.6397 23.964 6.89127 23.7649 5.76284 23.5449C5.06843 23.4086 2.63797 23.0104 2.48917 22.3293C2.32797 21.6062 2.72478 20.464 3.6672 20.2334C3.02238 20.2229 1.90636 21.1661 1.81956 22.0778C1.73275 22.9685 1.95596 23.0523 2.86118 23.4191C3.8036 23.8068 4.33681 23.9431 5.19243 24.1841C5.62644 24.2994 6.54406 24.6557 6.89127 24.8967C7.89569 25.5988 7.75928 26.4267 7.92049 27.7785C8.03209 28.6588 7.93289 32.4523 7.90809 35.4179V42.4914C8.03209 42.4914 8.2925 42.4914 8.2925 42.4914H14.5794V35.7742C14.5794 32.4837 17.9647 29.801 22.1188 29.801H26.9549V23.9221H26.8433V23.8383Z" fill="#EE5F96"/>
</svg>