<svg width="91" height="44" viewBox="0 0 91 44" fill="none" xmlns="http://www.w3.org/2000/svg">
<g id="Vector">
<g id="Vector_2">
<path d="M1.31212 15.87C1.1984 16.2185 1.44333 16.576 1.98568 16.8083C2.30933 16.9513 2.75546 16.9423 3.16659 16.844C3.78766 16.6921 4.4962 16.3079 4.4962 16.3079C4.4962 16.3079 3.93636 15.9147 3.58647 15.459C3.21032 14.9764 2.48428 13.5735 1.79323 14.1722C1.32087 14.5833 2.13438 15.459 2.13438 15.459C2.13438 15.459 1.42584 15.5305 1.31212 15.87Z" fill="#EE5F96"/>
<path d="M2.93915 12.3672C2.77295 13.1267 2.79044 13.1535 3.84889 13.8327C3.58647 13.234 3.44651 12.7067 2.93915 12.3672Z" fill="#EE5F96"/>
<path d="M5.58964 11.3842C5.73834 11.4915 5.8958 11.5719 5.69461 11.6702C5.86081 11.7774 5.79083 12.0097 5.93079 12.1348C6.20196 12.3672 6.49937 12.5459 6.84053 12.6174C7.14669 12.6799 7.48784 12.7693 7.77651 12.6799C8.03893 12.5995 8.23137 12.6621 8.45006 12.7425C8.79996 12.8676 9.14986 12.9927 9.49976 13.1178C9.49976 13.0642 9.48226 13.0374 9.46477 13.0195C9.05364 12.7157 8.59877 12.4655 8.23138 12.0812C8.19639 12.0455 8.11766 12.0366 8.05643 12.0187C7.6103 11.9204 7.19917 11.7417 6.80554 11.5093C6.72681 11.4647 6.63933 11.42 6.75305 11.3217C7.19042 10.9285 7.58406 10.4907 8.09142 10.1779C8.65125 9.83834 9.10612 9.98132 9.36855 10.5979C9.62222 11.2055 9.8759 11.8132 9.98962 12.4744C9.99836 12.4387 10.0246 12.4029 10.0246 12.3672C10.0071 11.563 9.91964 10.7766 9.65721 10.0171C9.56974 9.76686 9.38604 9.60601 9.12362 9.56133C8.89618 9.53452 8.66875 9.51665 8.44131 9.48985C7.98645 9.43623 7.6278 9.60601 7.31289 9.91877C7.15544 10.0796 7.04172 10.2673 7.06796 10.4996C7.1117 11 6.71806 11.1787 6.44689 11.4468C6.3944 11.5004 6.31568 11.4557 6.2457 11.4379C6.07075 11.3932 5.93954 11.2413 5.75584 11.1787C5.74709 11.277 5.93079 11.4379 5.58964 11.3842Z" fill="#EE5F96"/>
<path d="M19.5856 0C15.3256 0.00893582 12.3864 0.241267 10.1646 1.46548C9.24608 1.95695 8.41507 2.60032 7.70653 3.35987C7.54032 3.52965 7.40036 3.6905 7.28665 3.83347C7.26041 3.86921 7.23416 3.90495 7.20792 3.93176C7.19043 3.94963 7.18168 3.96751 7.16418 3.98538C6.7443 4.51259 6.38566 5.08448 6.0795 5.69212C5.8958 6.00487 5.74709 6.25508 5.70335 6.31763C5.12602 7.54184 3.90137 8.37287 2.48428 8.37287C1.70576 8.37287 0.988465 8.12266 0.393636 7.69375C0.148707 8.06905 0 8.51584 0 9.00731C0 10.303 1.15467 11.3217 2.40556 11.4468C3.12285 11.5183 3.65645 11.5987 4.53994 11.3038C5.24849 11.0715 5.95703 10.589 6.21071 10.0975C6.91051 8.7303 7.67154 7.24695 10.2171 6.87165C10.7681 6.79123 12.264 6.92526 13.0862 7.43461C14.0222 8.0065 14.5121 8.55158 14.6958 8.9805C14.5121 9.04305 14.2846 9.17709 14.2409 9.2039C13.4274 9.6775 12.7013 10.2405 12.3252 11.6434C12.124 12.4029 12.229 13.3769 12.6751 14.2973C13.025 15.0301 12.6314 16.7547 10.8994 16.3436C10.8469 16.3347 10.8994 16.5849 10.9169 16.6296C10.9781 16.844 11.3105 17.4785 12.2027 17.5232C12.5876 17.541 12.7976 17.4963 13.095 17.3355C13.9785 16.8351 13.8648 16.1649 13.7773 15.6019C13.751 15.4143 13.7335 15.2266 13.7248 15.0301C13.716 14.8603 13.716 14.6905 13.7248 14.5118C13.7335 14.1454 13.8298 13.6897 14.0047 13.2161C14.1884 12.7067 14.4508 12.2421 14.7832 11.831C15.2119 11.2859 15.7892 10.8034 16.5065 10.4996C16.5065 10.4996 16.5065 10.4996 16.5152 10.4996C16.5415 10.4907 17.0663 10.2405 17.6087 10.169C17.8449 10.1332 18.0985 10.1064 18.3435 10.1064C18.4834 10.1064 22.1749 10.1332 22.1749 10.1332V0C22.1749 0 20.5653 0 19.5856 0Z" fill="#EE5F96"/>
<path d="M18.3697 20.0431H15.1944C14.3021 20.0431 13.4186 20.1592 12.5789 20.3737C10.8119 20.7847 9.1936 21.6515 7.85523 22.9025C7.49659 22.7774 6.95424 22.2413 8.45881 21.2762C9.77093 20.4273 9.98087 18.4257 9.86715 18.5329C8.04768 20.1413 7.84649 20.3826 5.90455 20.186C5.52841 20.1503 4.29501 19.9805 3.49899 19.7929C3.00913 19.6767 1.29463 19.3371 1.18966 18.7563C1.07594 18.1397 1.35586 17.1657 2.02067 16.9691C1.5658 16.9602 0.778525 17.7644 0.717293 18.5418C0.656061 19.3014 0.813515 19.3729 1.45208 19.6856C2.11689 20.0162 2.49303 20.1324 3.09661 20.3379C3.40277 20.4362 4.05008 20.74 4.29501 20.9456C5.00356 21.5443 4.90733 22.2502 5.02105 23.4029C5.09978 24.1535 5.0298 27.3883 5.0123 29.9171V35.9488C5.09978 35.9488 5.28348 35.9488 5.28348 35.9488H9.71845V30.221C9.71845 27.4151 12.1065 25.1275 15.0369 25.1275H18.4484V20.1145H18.3697V20.0431Z" fill="#EE5F96"/>
<path d="M7.74152 41.2299C7.92521 41.2299 8.07392 41.2835 8.17889 41.3997C8.28386 41.5158 8.3276 41.6856 8.3276 41.909V43.1511H8.69499V41.8643C8.69499 41.5426 8.61626 41.3014 8.45881 41.1405C8.30135 40.9797 8.08267 40.8993 7.8115 40.8993C7.6278 40.8993 7.4616 40.935 7.31289 41.0065C7.16418 41.078 7.05047 41.1763 6.97174 41.3103L6.95424 41.3282L6.9455 41.3014C6.87552 41.1673 6.77055 41.069 6.63933 40.9976C6.50812 40.9261 6.35942 40.8903 6.18447 40.8903C6.01826 40.8903 5.86956 40.9171 5.74709 40.9797C5.61588 41.0422 5.51091 41.1316 5.43218 41.2388L5.40594 41.2746V40.9082H5.05604V43.1422H5.42344V41.9894C5.42344 41.7482 5.48467 41.5516 5.60713 41.4175C5.7296 41.2835 5.8958 41.221 6.10574 41.221C6.28944 41.221 6.43814 41.2746 6.54311 41.3907C6.64808 41.5069 6.69182 41.6767 6.69182 41.9001V43.1422H7.05921V41.9894C7.05921 41.7482 7.12045 41.5516 7.24291 41.4175C7.37412 41.3014 7.54033 41.2299 7.74152 41.2299Z" fill="black"/>
<path d="M10.9431 42.9902C11.0918 43.1064 11.2842 43.169 11.5292 43.169C11.6954 43.169 11.8441 43.1422 11.9665 43.0885C12.089 43.0349 12.1852 42.9545 12.2465 42.8562L12.2727 42.8115V43.1511H12.6226V41.8018C12.6226 41.5069 12.5439 41.2746 12.3864 41.1227C12.229 40.9708 11.9928 40.8993 11.6954 40.8993C11.5204 40.8993 11.3542 40.9261 11.1968 40.9708C11.0481 41.0154 10.9169 41.0869 10.8031 41.1763L10.9518 41.4533C11.0393 41.3818 11.1443 41.3282 11.258 41.2835C11.3805 41.2388 11.5117 41.221 11.6516 41.221C11.8528 41.221 12.0015 41.2656 12.1065 41.3639C12.2115 41.4622 12.264 41.5963 12.264 41.7839V41.8822H11.5992C11.293 41.8822 11.0743 41.9448 10.9343 42.0609C10.7944 42.1771 10.7244 42.3379 10.7244 42.5256C10.7244 42.7132 10.7944 42.8741 10.9431 42.9902ZM11.6166 42.1413H12.2465V42.4809C12.194 42.6149 12.1153 42.7132 12.0015 42.7847C11.8878 42.8562 11.7479 42.892 11.5992 42.892C11.4417 42.892 11.3192 42.8562 11.2318 42.7937C11.1443 42.7222 11.0918 42.6328 11.0918 42.5167C11.0918 42.2664 11.2667 42.1413 11.6166 42.1413Z" fill="black"/>
<path d="M15.8942 41.2567C15.9292 41.2567 15.9466 41.2567 15.9729 41.2567V40.8903C15.7892 40.8903 15.6317 40.9261 15.5005 40.9886C15.3693 41.0512 15.2643 41.1495 15.1944 41.2835L15.1681 41.3371V40.9082H14.8182V43.1422H15.1856V42.0341C15.1856 41.7839 15.2469 41.5963 15.3781 41.4622C15.5005 41.3282 15.6755 41.2567 15.8942 41.2567Z" fill="black"/>
<path d="M19.5943 43.1511H20.0492L19.0433 41.8375L19.052 41.8286L19.953 40.9171H19.5156L18.2822 42.0609V40.0146H17.9148V43.1511H18.2822V42.5345L18.7633 42.0877L19.5943 43.1511Z" fill="black"/>
<path d="M23.6357 42.8205L23.4345 42.5792C23.2683 42.7579 23.0583 42.8473 22.7959 42.8473C22.5772 42.8473 22.3935 42.7847 22.2448 42.6596C22.0961 42.5345 22.0087 42.3737 21.9824 42.1682V42.1503H23.7844C23.7931 42.1056 23.7931 42.0699 23.7931 42.0431C23.7931 41.8197 23.7494 41.6141 23.6532 41.4444C23.5657 41.2746 23.4345 41.1316 23.2683 41.0422C23.1021 40.9439 22.9184 40.8993 22.7085 40.8993C22.4985 40.8993 22.3148 40.9439 22.1486 41.0422C21.9824 41.1405 21.8512 41.2746 21.755 41.4444C21.6588 41.6141 21.615 41.8107 21.615 42.0341C21.615 42.2486 21.6675 42.4541 21.7637 42.6239C21.8599 42.7937 21.9999 42.9366 22.1749 43.026C22.3498 43.1243 22.5597 43.169 22.7872 43.169C22.9709 43.169 23.1371 43.1422 23.277 43.0796C23.417 43.0171 23.5395 42.9366 23.6357 42.8205ZM21.9824 41.8733C22.0087 41.6767 22.0874 41.5158 22.2186 41.3907C22.3498 41.2656 22.516 41.212 22.7085 41.212C22.9009 41.212 23.0671 41.2746 23.1983 41.3997C23.3295 41.5248 23.4082 41.6856 23.4345 41.8733V41.8911H21.9824V41.8733Z" fill="black"/>
<path d="M26.0325 42.9992C26.155 43.1154 26.3212 43.1779 26.5398 43.1779C26.6273 43.1779 26.7148 43.16 26.8023 43.1422C26.881 43.1154 26.951 43.0796 27.0035 43.0349L26.8897 42.7669C26.8023 42.8294 26.6973 42.8651 26.5836 42.8651C26.4699 42.8651 26.3824 42.8294 26.3124 42.7579C26.2512 42.6864 26.2162 42.5881 26.2162 42.463V41.221H26.8548V40.9171H26.2162V40.4257H25.8488V40.9171H25.4727V41.221H25.8488V42.4809C25.8488 42.7043 25.91 42.8741 26.0325 42.9992Z" fill="black"/>
<path d="M29.304 40.9171H28.9367V43.1511H29.304V40.9171Z" fill="black"/>
<path d="M29.3128 40.0236C29.2603 39.9789 29.1991 39.9521 29.1291 39.9521C29.0504 39.9521 28.9979 39.9789 28.9454 40.0236C28.8929 40.0772 28.8754 40.1308 28.8754 40.2023C28.8754 40.2738 28.9017 40.3274 28.9454 40.381C28.9979 40.4257 29.0591 40.4525 29.1291 40.4525C29.2078 40.4525 29.2603 40.4257 29.3128 40.381C29.3653 40.3274 29.3828 40.2738 29.3828 40.2023C29.3828 40.1219 29.3565 40.0682 29.3128 40.0236Z" fill="black"/>
<path d="M32.6106 41.2299C32.803 41.2299 32.9605 41.2835 33.0655 41.3997C33.1704 41.5158 33.2229 41.6856 33.2229 41.909V43.1511H33.5903V41.8643C33.5903 41.5516 33.5116 41.3103 33.3454 41.1405C33.1792 40.9797 32.9605 40.8993 32.6893 40.8993C32.5144 40.8993 32.3569 40.9261 32.2257 40.9886C32.0945 41.0512 31.9808 41.1405 31.902 41.2478L31.8758 41.2835V40.9082H31.5259V43.1422H31.8933V41.9894C31.8933 41.7482 31.9545 41.5516 32.0857 41.4175C32.217 41.3014 32.3919 41.2299 32.6106 41.2299Z" fill="black"/>
<path d="M36.7569 44C37.133 44 37.4217 43.9017 37.6054 43.723C37.7978 43.5353 37.8853 43.2494 37.8853 42.8562V40.9171H37.5354V41.3014L37.5092 41.2656C37.4217 41.1495 37.2992 41.0512 37.1593 40.9976C37.0193 40.935 36.8619 40.9082 36.6957 40.9082C36.4857 40.9082 36.2933 40.9529 36.1271 41.0422C35.9609 41.1316 35.8297 41.2567 35.7334 41.4265C35.6372 41.5873 35.5935 41.775 35.5935 41.9894C35.5935 42.195 35.646 42.3915 35.7334 42.5524C35.8297 42.7132 35.9609 42.8473 36.1271 42.9366C36.2933 43.026 36.4857 43.0707 36.6957 43.0707C36.8531 43.0707 37.0018 43.0439 37.1418 42.9813C37.273 42.9277 37.3955 42.8383 37.4829 42.7222L37.5092 42.6864V42.9098C37.5092 43.169 37.4479 43.3656 37.3167 43.4907C37.1943 43.6158 36.9931 43.6872 36.7307 43.6872C36.5644 43.6872 36.407 43.6604 36.2583 43.6068C36.1096 43.5532 35.9871 43.4907 35.8821 43.4013L35.7072 43.6872C35.8209 43.7855 35.9696 43.866 36.1533 43.9285C36.3545 43.9732 36.547 44 36.7569 44ZM37.4304 42.3647C37.3605 42.4809 37.273 42.5703 37.1505 42.6328C37.0368 42.6954 36.8969 42.7311 36.7569 42.7311C36.6082 42.7311 36.4682 42.6954 36.3545 42.6328C36.2408 42.5703 36.1446 42.4809 36.0746 42.3647C36.0046 42.2486 35.9784 42.1235 35.9784 41.9716C35.9784 41.7482 36.0484 41.5695 36.1971 41.4265C36.3458 41.2924 36.5295 41.221 36.7569 41.221C36.9843 41.221 37.168 41.2924 37.3167 41.4265C37.4654 41.5605 37.5354 41.7482 37.5354 41.9716C37.5267 42.1145 37.4917 42.2486 37.4304 42.3647Z" fill="black"/>
<path d="M42.4602 42.4184C42.4602 42.5613 42.504 42.6954 42.5915 42.8115C42.6789 42.9277 42.8014 43.0171 42.9501 43.0796C43.1076 43.1422 43.2825 43.1779 43.475 43.1779C43.8598 43.1779 44.1835 43.0528 44.4459 42.8026L44.4547 42.7937L44.8396 43.1868L45.0495 42.9366L44.6559 42.5345L44.6646 42.5256C44.7783 42.3379 44.8658 42.1145 44.9183 41.8643L44.6296 41.766C44.5946 41.9626 44.5334 42.1413 44.4547 42.2933L44.4459 42.3111L43.6936 41.5516L43.7111 41.5426C43.9298 41.4175 44.0873 41.2924 44.1835 41.1673C44.2797 41.0512 44.3235 40.9171 44.3235 40.7742C44.3235 40.5865 44.2622 40.4346 44.131 40.3274C43.9998 40.2201 43.8249 40.1665 43.6062 40.1665C43.37 40.1665 43.1775 40.2291 43.0376 40.3452C42.8976 40.4614 42.8276 40.6223 42.8276 40.8188C42.8276 40.9261 42.8539 41.0333 42.9064 41.1405C42.9589 41.2478 43.0463 41.3639 43.1775 41.489L43.195 41.5069L43.1775 41.5158C42.9239 41.6588 42.7489 41.8107 42.6352 41.9448C42.5127 42.0877 42.4602 42.2396 42.4602 42.4184ZM43.16 40.8099C43.16 40.6937 43.195 40.6044 43.2738 40.5329C43.3525 40.4614 43.4575 40.4257 43.5887 40.4257C43.7111 40.4257 43.8161 40.4614 43.8861 40.515C43.9561 40.5776 43.9911 40.658 43.9911 40.7652C43.9911 40.8635 43.9561 40.9529 43.8773 41.0333C43.7986 41.1137 43.6674 41.212 43.475 41.3193L43.4662 41.3282L43.4575 41.3193C43.3437 41.1941 43.2563 41.0959 43.2213 41.0244C43.1775 40.9708 43.16 40.8903 43.16 40.8099ZM42.9414 42.0341C43.0201 41.9358 43.16 41.8286 43.3612 41.7124L43.37 41.7035L44.2185 42.5703L44.2097 42.5792C44.0173 42.7669 43.7811 42.8651 43.4837 42.8651C43.2825 42.8651 43.1251 42.8205 43.0026 42.7311C42.8801 42.6418 42.8101 42.5167 42.8101 42.3737C42.8189 42.2575 42.8626 42.1413 42.9414 42.0341Z" fill="black"/>
<path d="M52.1612 41.2299C52.3449 41.2299 52.4936 41.2835 52.5986 41.3997C52.7035 41.5158 52.7473 41.6856 52.7473 41.909V43.1511H53.1147V41.8643C53.1147 41.5426 53.036 41.3014 52.8785 41.1405C52.721 40.9797 52.5024 40.8993 52.2312 40.8993C52.0475 40.8993 51.8813 40.935 51.7326 41.0065C51.5839 41.078 51.4702 41.1763 51.3914 41.3103L51.3739 41.3282L51.3652 41.3014C51.2952 41.1673 51.1902 41.069 51.059 40.9976C50.9278 40.9261 50.7791 40.8903 50.6042 40.8903C50.438 40.8903 50.2892 40.9171 50.1668 40.9797C50.0356 41.0422 49.9306 41.1316 49.8519 41.2388L49.8256 41.2746V40.9082H49.4757V43.1422H49.8431V41.9894C49.8431 41.7482 49.9044 41.5516 50.0268 41.4175C50.1493 41.2835 50.3155 41.221 50.5254 41.221C50.7091 41.221 50.8578 41.2746 50.9628 41.3907C51.0678 41.5069 51.1115 41.6767 51.1115 41.9001V43.1422H51.4789V41.9894C51.4789 41.7482 51.5401 41.5516 51.6626 41.4175C51.7938 41.3014 51.96 41.2299 52.1612 41.2299Z" fill="black"/>
<path d="M56.6574 42.8562L56.6836 42.8115V43.1511H57.0335V41.8018C57.0335 41.5069 56.9548 41.2746 56.7974 41.1227C56.6399 40.9708 56.4037 40.8993 56.1063 40.8993C55.9314 40.8993 55.7652 40.9261 55.6077 40.9708C55.459 41.0154 55.3278 41.0869 55.2141 41.1763L55.3628 41.4533C55.4502 41.3818 55.5552 41.3282 55.6689 41.2835C55.7914 41.2388 55.9226 41.221 56.0626 41.221C56.2638 41.221 56.4125 41.2656 56.5174 41.3639C56.6224 41.4622 56.6749 41.5963 56.6749 41.7839V41.8822H56.0276C55.7214 41.8822 55.5027 41.9448 55.3628 42.0609C55.2228 42.1771 55.1528 42.3379 55.1528 42.5256C55.1528 42.7222 55.2228 42.8741 55.3715 42.9992C55.5202 43.1154 55.7127 43.1779 55.9576 43.1779C56.1238 43.1779 56.2725 43.1511 56.395 43.0975C56.4999 43.0349 56.5962 42.9545 56.6574 42.8562ZM56.4125 42.7847C56.2988 42.8562 56.1588 42.892 56.0101 42.892C55.8526 42.892 55.7302 42.8562 55.6427 42.7937C55.5552 42.7222 55.5115 42.6328 55.5115 42.5167C55.5115 42.2754 55.6864 42.1503 56.0363 42.1503H56.6661V42.4898C56.6137 42.606 56.5262 42.7132 56.4125 42.7847Z" fill="black"/>
<path d="M60.3139 41.2299C60.5063 41.2299 60.6637 41.2835 60.7687 41.3997C60.8737 41.5158 60.9262 41.6856 60.9262 41.909V43.1511H61.2936V41.8643C61.2936 41.5516 61.2148 41.3103 61.0486 41.1405C60.8824 40.9797 60.6637 40.8993 60.3926 40.8993C60.2176 40.8993 60.0602 40.9261 59.929 40.9886C59.7977 41.0512 59.684 41.1405 59.6053 41.2478L59.5791 41.2835V40.9082H59.2292V43.1422H59.5966V41.9894C59.5966 41.7482 59.6578 41.5516 59.789 41.4175C59.9202 41.3014 60.0952 41.2299 60.3139 41.2299Z" fill="black"/>
<path d="M63.5417 42.9902C63.6904 43.1064 63.8828 43.169 64.1277 43.169C64.2939 43.169 64.4427 43.1422 64.5651 43.0885C64.6876 43.0349 64.7838 42.9545 64.845 42.8562L64.8713 42.8115V43.1511H65.2212V41.8018C65.2212 41.5069 65.1425 41.2746 64.985 41.1227C64.8276 40.9708 64.5914 40.8993 64.294 40.8993C64.119 40.8993 63.9528 40.9261 63.7953 40.9708C63.6466 41.0154 63.5154 41.0869 63.4017 41.1763L63.5504 41.4533C63.6379 41.3818 63.7341 41.3282 63.8566 41.2835C63.979 41.2388 64.1103 41.221 64.2502 41.221C64.4514 41.221 64.6001 41.2656 64.7051 41.3639C64.8101 41.4622 64.8625 41.5963 64.8625 41.7839V41.8822H64.2152C63.9091 41.8822 63.6904 41.9448 63.5504 42.0609C63.4105 42.1771 63.3405 42.3379 63.3405 42.5256C63.323 42.7132 63.393 42.8741 63.5417 42.9902ZM64.2152 42.1413H64.845V42.4809C64.7926 42.6149 64.7138 42.7132 64.6001 42.7847C64.4864 42.8562 64.3464 42.892 64.1977 42.892C64.0403 42.892 63.9178 42.8562 63.8303 42.7937C63.7429 42.7222 63.6904 42.6328 63.6904 42.5167C63.6904 42.2664 63.8653 42.1413 64.2152 42.1413Z" fill="black"/>
<path d="M68.379 44C68.7552 44 69.0438 43.9017 69.2275 43.723C69.42 43.5353 69.5074 43.2494 69.5074 42.8562V40.9171H69.1575V41.3014L69.1313 41.2656C69.0438 41.1495 68.9214 41.0512 68.7814 40.9976C68.6414 40.935 68.484 40.9082 68.3178 40.9082C68.1079 40.9082 67.9154 40.9529 67.7492 41.0422C67.583 41.1316 67.4518 41.2567 67.3556 41.4265C67.2594 41.5873 67.2156 41.775 67.2156 41.9894C67.2156 42.195 67.2681 42.3915 67.3556 42.5524C67.4518 42.7132 67.583 42.8473 67.7492 42.9366C67.9154 43.026 68.1079 43.0707 68.3178 43.0707C68.4753 43.0707 68.624 43.0439 68.7639 42.9813C68.8951 42.9277 69.0176 42.8383 69.1051 42.7222L69.1313 42.6864V42.9098C69.1313 43.169 69.0701 43.3656 68.9389 43.4907C68.8164 43.6158 68.6152 43.6872 68.3528 43.6872C68.1866 43.6872 68.0291 43.6604 67.8804 43.6068C67.7317 43.5532 67.6092 43.4907 67.5043 43.4013L67.3293 43.6872C67.443 43.7855 67.5918 43.866 67.7755 43.9285C67.9766 43.9732 68.1691 44 68.379 44ZM69.0526 42.3647C68.9826 42.4809 68.8951 42.5703 68.7727 42.6328C68.6589 42.6954 68.519 42.7311 68.379 42.7311C68.2303 42.7311 68.0904 42.6954 67.9766 42.6328C67.8629 42.5703 67.7667 42.4809 67.6967 42.3647C67.6267 42.2486 67.6005 42.1235 67.6005 41.9716C67.6005 41.7482 67.6705 41.5695 67.8192 41.4265C67.9591 41.2924 68.1516 41.221 68.379 41.221C68.6065 41.221 68.7902 41.2924 68.9389 41.4265C69.0876 41.5605 69.1575 41.7482 69.1575 41.9716C69.1488 42.1145 69.1138 42.2486 69.0526 42.3647Z" fill="black"/>
<path d="M71.6681 41.4444C71.5719 41.6141 71.5281 41.8107 71.5281 42.0341C71.5281 42.2486 71.5806 42.4541 71.6768 42.6239C71.773 42.7937 71.913 42.9366 72.088 43.026C72.2629 43.1243 72.4728 43.169 72.7003 43.169C72.884 43.169 73.0502 43.1422 73.1901 43.0796C73.3301 43.0171 73.4526 42.9366 73.5488 42.8205L73.3476 42.5792C73.1814 42.7579 72.9714 42.8473 72.709 42.8473C72.4903 42.8473 72.3066 42.7847 72.1579 42.6596C72.0092 42.5345 71.9218 42.3737 71.8955 42.1682V42.1503H73.6975C73.7062 42.1056 73.7062 42.0699 73.7062 42.0431C73.7062 41.8197 73.6625 41.6141 73.5663 41.4444C73.4788 41.2746 73.3476 41.1316 73.1814 41.0422C73.0152 40.9439 72.8315 40.8993 72.6215 40.8993C72.4116 40.8993 72.2279 40.9439 72.0617 41.0422C71.8868 41.1405 71.7555 41.2746 71.6681 41.4444ZM71.8955 41.8733C71.9218 41.6767 72.0005 41.5158 72.1317 41.3907C72.2629 41.2656 72.4291 41.212 72.6215 41.212C72.814 41.212 72.9802 41.2746 73.1114 41.3997C73.2426 41.5248 73.3213 41.6856 73.3476 41.8733V41.8911H71.8955V41.8733Z" fill="black"/>
<path d="M78.3861 41.2299C78.5698 41.2299 78.7185 41.2835 78.8235 41.3997C78.9285 41.5158 78.9722 41.6856 78.9722 41.909V43.1511H79.3396V41.8643C79.3396 41.5426 79.2609 41.3014 79.1034 41.1405C78.946 40.9797 78.7273 40.8993 78.4561 40.8993C78.2724 40.8993 78.1062 40.935 77.9575 41.0065C77.8088 41.078 77.6951 41.1763 77.6164 41.3103L77.5989 41.3282L77.5901 41.3014C77.5201 41.1673 77.4152 41.069 77.284 40.9976C77.1527 40.9261 77.004 40.8903 76.8291 40.8903C76.6629 40.8903 76.5142 40.9171 76.3917 40.9797C76.2605 41.0422 76.1555 41.1316 76.0768 41.2388L76.0506 41.2746V40.9082H75.7007V43.1422H76.068V41.9894C76.068 41.7482 76.1293 41.5516 76.2517 41.4175C76.3742 41.2835 76.5404 41.221 76.7504 41.221C76.9341 41.221 77.0828 41.2746 77.1877 41.3907C77.2927 41.5069 77.3364 41.6767 77.3364 41.9001V43.1422H77.7038V41.9894C77.7038 41.7482 77.7651 41.5516 77.8875 41.4175C78.0187 41.3014 78.1849 41.2299 78.3861 41.2299Z" fill="black"/>
<path d="M83.5209 42.0431C83.5209 41.8197 83.4772 41.6141 83.3809 41.4444C83.2935 41.2746 83.1622 41.1316 82.996 41.0422C82.8298 40.9439 82.6462 40.8993 82.4362 40.8993C82.2263 40.8993 82.0426 40.9439 81.8764 41.0422C81.7102 41.1405 81.579 41.2746 81.4827 41.4444C81.3865 41.6141 81.3428 41.8107 81.3428 42.0341C81.3428 42.2486 81.3953 42.4541 81.4915 42.6239C81.5877 42.7937 81.7277 42.9366 81.9026 43.026C82.0776 43.1243 82.2875 43.169 82.5149 43.169C82.6986 43.169 82.8648 43.1422 83.0048 43.0796C83.1448 43.0171 83.2672 42.9366 83.3634 42.8205L83.1623 42.5792C82.9961 42.7579 82.7861 42.8473 82.5237 42.8473C82.305 42.8473 82.1213 42.7847 81.9726 42.6596C81.8239 42.5345 81.7364 42.3737 81.7102 42.1682V42.1503H83.5121C83.5209 42.1056 83.5209 42.0699 83.5209 42.0431ZM81.7102 41.8911V41.8733C81.7364 41.6767 81.8151 41.5158 81.9464 41.3907C82.0776 41.2656 82.2438 41.212 82.4362 41.212C82.6287 41.212 82.7949 41.2746 82.9261 41.3997C83.0573 41.5248 83.136 41.6856 83.1623 41.8733V41.8911H81.7102Z" fill="black"/>
<path d="M86.6174 41.2299C86.8099 41.2299 86.9673 41.2835 87.0723 41.3997C87.1773 41.5158 87.2298 41.6856 87.2298 41.909V43.1511H87.5972V41.8643C87.5972 41.5516 87.5184 41.3103 87.3522 41.1405C87.186 40.9797 86.9673 40.8993 86.6962 40.8993C86.5212 40.8993 86.3638 40.9261 86.2326 40.9886C86.1013 41.0512 85.9876 41.1405 85.9089 41.2478L85.8827 41.2835V40.9082H85.5328V43.1422H85.9001V41.9894C85.9001 41.7482 85.9614 41.5516 86.0926 41.4176C86.215 41.3014 86.39 41.2299 86.6174 41.2299Z" fill="black"/>
<path d="M90.029 42.9992C90.1515 43.1154 90.3177 43.1779 90.5364 43.1779C90.6239 43.1779 90.7113 43.16 90.7988 43.1422C90.8775 43.1154 90.9475 43.0796 91 43.0349L90.8863 42.7669C90.7988 42.8294 90.6938 42.8651 90.5801 42.8651C90.4664 42.8651 90.3789 42.8294 90.309 42.7579C90.2477 42.6864 90.2127 42.5881 90.2127 42.463V41.221H90.8513V40.9171H90.2127V40.4257H89.8453V40.9171H89.4692V41.221H89.8453V42.4809C89.8453 42.7043 89.9066 42.8741 90.029 42.9992Z" fill="black"/>
<path d="M33.0217 10.3298C31.9983 9.82047 30.8436 9.57027 29.5577 9.57027C27.0997 9.57027 25.3065 10.1243 24.1693 11.2413C23.0409 12.3582 22.4723 14.2437 22.4723 16.9155C22.4723 17.1032 22.4723 17.2729 22.4723 17.4249C22.4723 17.5768 22.481 17.6929 22.4898 17.7912H28.0969V16.1828C28.0969 15.0122 28.4818 14.4314 29.2603 14.4314C30.1088 14.4314 30.5287 15.1552 30.5287 16.5938V19.3461L26.951 20.7132C25.7176 21.1779 24.7466 21.7409 24.0468 22.411C23.347 23.0812 22.8484 23.9301 22.5597 24.9756C22.2711 26.0211 22.1224 27.3526 22.1224 28.9878C22.1224 30.5158 22.2536 31.8741 22.5073 33.0804C22.7609 34.2868 23.242 35.234 23.9506 35.922C24.6504 36.6101 25.6738 36.9586 27.021 36.9586C27.8432 36.9586 28.5868 36.6637 29.2253 36.065C29.8726 35.4663 30.3275 34.6084 30.6074 33.4915V36.6726H36.337V16.2453C36.337 14.7888 36.0396 13.5735 35.4448 12.5816C34.8499 11.5898 34.0364 10.8392 33.0217 10.3298ZM30.5025 29.8993C30.5025 30.4086 30.415 30.8911 30.2488 31.329C30.0738 31.7669 29.7589 31.9903 29.2866 31.9903C28.4293 31.9903 28.0007 31.195 28.0007 29.6133V26.1641C28.0007 25.1186 28.2194 24.3233 28.6567 23.7782C29.0941 23.2331 29.7152 22.7864 30.5112 22.4289V29.8993H30.5025Z" fill="#EE5F96"/>
<path d="M59.3691 10.5264C58.6431 9.89196 57.6109 9.57027 56.2725 9.57027C55.1703 9.57027 54.3131 9.8026 53.7183 10.2583C53.1234 10.7141 52.6073 11.3842 52.1612 12.2689C51.8813 11.4557 51.4002 10.8034 50.7179 10.3119C50.0356 9.82047 49.2133 9.57027 48.2423 9.57027C47.0439 9.57027 46.1254 9.86515 45.5044 10.446C44.8833 11.0268 44.4459 11.8668 44.1835 12.9659V9.85621H38.5501V36.6726H44.3147V17.7465C44.3147 17.2551 44.3585 16.7636 44.4459 16.2543C44.5334 15.7449 44.6909 15.3249 44.927 14.9764C45.1632 14.6279 45.4956 14.4582 45.9243 14.4582C46.4316 14.4582 46.7465 14.7352 46.869 15.2981C46.9914 15.8611 47.0527 16.4151 47.0527 16.9781V36.6816H52.7998V17.4249C52.7998 16.9602 52.8435 16.4955 52.931 16.0309C53.0185 15.5662 53.1759 15.173 53.3946 14.8603C53.622 14.5475 53.9457 14.3867 54.3568 14.3867C55.1528 14.3867 55.5465 15.2535 55.5465 16.9781V36.6816H61.2936V17.0853C61.2936 15.6109 61.1536 14.3063 60.8649 13.1803C60.6025 12.0455 60.0952 11.1698 59.3691 10.5264Z" fill="#EE5F96"/>
<path d="M70.6184 9.57027C68.3615 9.57027 66.5945 10.2136 65.3087 11.4915C64.0228 12.7693 63.3755 14.6548 63.3755 17.1478V27.9245C63.3755 29.8188 63.5942 31.4452 64.0315 32.7855C64.4689 34.1348 65.2037 35.1625 66.2184 35.8773C67.2419 36.5922 68.6065 36.9496 70.321 36.9496C72.1492 36.9496 73.5838 36.6101 74.6422 35.922C75.7007 35.234 76.4529 34.2153 76.8991 32.866C77.3452 31.5167 77.5639 29.8367 77.5639 27.8351V26.316H71.8343V28.8895C71.8343 29.8188 71.7555 30.5695 71.6068 31.1503C71.4581 31.7311 71.082 32.0171 70.4784 32.0171C70.0585 32.0171 69.7524 31.8652 69.5687 31.5703C69.385 31.2754 69.2625 30.8911 69.21 30.4354C69.1575 29.9797 69.1313 29.5061 69.1313 29.0325V23.8497H77.5026C77.5464 23.0366 77.5639 21.4549 77.5639 19.0959V17.1478C77.5726 12.0991 75.2545 9.57027 70.6184 9.57027ZM71.843 20.6775H69.1051V17.0674C69.1051 16.0666 69.2275 15.3607 69.4812 14.9586C69.7349 14.5565 70.0935 14.3509 70.5484 14.3509C70.977 14.3509 71.3007 14.5654 71.5106 14.9854C71.7293 15.4054 71.8343 16.1024 71.8343 17.0674V20.6775H71.843Z" fill="#EE5F96"/>
<path d="M85.2704 31.883L90.9563 14.2169V9.85622H79.2434V14.9318H84.9817L78.9547 32.7587V36.6726H91V31.883H85.2704Z" fill="#EE5F96"/>
</g>
</g>
</svg>
