<svg width="420" height="202" viewBox="0 0 420 202" fill="none" xmlns="http://www.w3.org/2000/svg">
<path d="M6.05594 72.8578C5.5311 74.4578 6.66154 76.0987 9.16466 77.1653C10.6585 77.8217 12.7175 77.7807 14.615 77.3294C17.4815 76.632 20.7517 74.868 20.7517 74.868C20.7517 74.868 18.1678 73.0629 16.5529 70.9707C14.8169 68.7555 11.4659 62.3148 8.27646 65.0634C6.09632 66.9504 9.851 70.9707 9.851 70.9707C9.851 70.9707 6.58079 71.2989 6.05594 72.8578Z" fill="#EE5F96"/>
<path d="M13.5653 56.7766C12.7982 60.2636 12.879 60.3867 17.7641 63.5045C16.5529 60.7559 15.9069 58.3355 13.5653 56.7766Z" fill="#EE5F96"/>
<path d="M25.7983 52.264C26.4847 52.7563 27.2114 53.1255 26.2828 53.5768C27.0499 54.069 26.7269 55.1357 27.3729 55.71C28.6244 56.7766 29.9971 57.5971 31.5717 57.9253C32.9847 58.2124 34.5593 58.6227 35.8916 58.2124C37.1028 57.8432 37.991 58.1304 39.0003 58.4996C40.6152 59.0739 42.2301 59.6483 43.845 60.2226C43.845 59.9764 43.7643 59.8534 43.6836 59.7713C41.786 58.3765 39.6866 57.2279 37.991 55.4638C37.8295 55.2997 37.4661 55.2587 37.1835 55.1767C35.1245 54.7254 33.227 53.905 31.4102 52.8383C31.0468 52.6332 30.6431 52.4281 31.1679 51.9768C33.1866 50.1718 35.0034 48.1617 37.345 46.7258C39.9289 45.1669 42.0283 45.8233 43.2394 48.6539C44.4103 51.4435 45.5811 54.2331 46.1059 57.2689C46.1463 57.1048 46.2674 56.9407 46.2674 56.7766C46.1867 53.0845 45.7829 49.4744 44.5718 45.9874C44.168 44.8387 43.3202 44.1003 42.109 43.8952C41.0593 43.7721 40.0096 43.6901 38.9599 43.567C36.8605 43.3209 35.2052 44.1003 33.7518 45.5361C33.0251 46.2746 32.5002 47.1361 32.6214 48.2027C32.8232 50.5 31.0064 51.3205 29.7549 52.5512C29.5126 52.7973 29.1493 52.5922 28.8263 52.5102C28.0188 52.305 27.4132 51.6076 26.5654 51.3205C26.525 51.7717 27.3729 52.5102 25.7983 52.264Z" fill="#EE5F96"/>
<path d="M90.3951 -6.88056e-07C70.7334 0.041023 57.1681 1.10764 46.9134 6.72786C42.6742 8.98416 38.8388 11.9379 35.5686 15.4249C34.8015 16.2043 34.1555 16.9427 33.6307 17.5991C33.5096 17.7632 33.3884 17.9273 33.2673 18.0504C33.1866 18.1324 33.1462 18.2145 33.0655 18.2965C31.1276 20.7169 29.4723 23.3424 28.0592 26.132C27.2114 27.5678 26.525 28.7165 26.3232 29.0037C23.6586 34.6239 18.0063 38.4391 11.4659 38.4391C7.87273 38.4391 4.56215 37.2904 1.81678 35.3213C0.68634 37.0443 -4.69296e-07 39.0954 -4.9638e-07 41.3517C-5.67784e-07 47.3002 5.32923 51.9768 11.1026 52.5512C14.4131 52.8794 16.8759 53.2486 20.9536 51.8948C24.2238 50.8282 27.494 48.6129 28.6648 46.3566C31.8946 40.08 35.4071 33.2701 47.1556 31.5471C49.6991 31.1779 56.6029 31.7933 60.398 34.1316C64.7179 36.7571 66.9788 39.2595 67.8266 41.2287C66.9788 41.5158 65.9291 42.1312 65.7272 42.2543C61.9725 44.4285 58.6216 47.013 56.8855 53.4537C55.9569 56.9407 56.4414 61.4123 58.5004 65.6377C60.1154 69.0016 58.2986 76.9192 50.3047 75.0321C50.0625 74.9911 50.3047 76.1397 50.3855 76.3448C50.6681 77.3294 52.2022 80.2421 56.3203 80.4472C58.0967 80.5292 59.0657 80.3241 60.4383 79.5857C64.516 77.2884 63.9912 74.2116 63.5874 71.6271C63.4663 70.7656 63.3856 69.9041 63.3452 69.0016C63.3048 68.2222 63.3048 67.4427 63.3452 66.6223C63.3856 64.9403 63.8297 62.8481 64.6371 60.6738C65.485 58.3355 66.6961 56.2023 68.2303 54.3152C70.2086 51.8128 72.8732 49.5975 76.1838 48.2027C76.1838 48.2027 76.1838 48.2027 76.2242 48.2027C76.3453 48.1617 78.7677 47.013 81.2708 46.6848C82.3609 46.5207 83.5317 46.3976 84.6621 46.3976C85.3081 46.3976 102.345 46.5207 102.345 46.5207L102.345 -7.79018e-07C102.345 -7.79018e-07 94.9168 -7.22474e-07 90.3951 -6.88056e-07Z" fill="#EE5F96"/>
<path d="M84.7832 92.0158L70.1278 92.0158C66.0098 92.0158 61.9321 92.5491 58.0563 93.5337C49.901 95.4208 42.432 99.4001 36.2549 105.143C34.5996 104.569 32.0965 102.108 39.0407 97.6771C45.0966 93.7798 46.0656 84.5906 45.5407 85.0829C37.1431 92.4671 36.2146 93.5747 27.2518 92.6722C25.5157 92.5081 19.8231 91.7287 16.1492 90.8672C13.8883 90.3339 5.9752 88.775 5.49072 86.1085C4.96587 83.2778 6.25781 78.8063 9.32615 77.9037C7.22676 77.8627 3.59319 81.5548 3.31058 85.1239C3.02797 88.6109 3.75468 88.9391 6.70191 90.3749C9.77026 91.8928 11.5063 92.4261 14.292 93.3696C15.7051 93.8209 18.6927 95.2157 19.8231 96.1592C23.0933 98.9078 22.6492 102.149 23.1741 107.441C23.5374 110.887 23.2145 125.737 23.1337 137.347L23.1337 165.038C23.5374 165.038 24.3853 165.038 24.3853 165.038L44.8544 165.038L44.8544 138.742C44.8544 125.86 55.8762 115.358 69.4011 115.358L85.1466 115.358L85.1466 92.344L84.7832 92.344L84.7832 92.0158Z" fill="#EE5F96"/>
<path d="M35.7301 189.283C36.5779 189.283 37.2642 189.529 37.7487 190.062C38.2332 190.595 38.4351 191.375 38.4351 192.4L38.4351 198.103L40.1307 198.103L40.1307 192.195C40.1307 190.719 39.7674 189.611 39.0407 188.872C38.3139 188.134 37.3046 187.765 36.0531 187.765C35.2052 187.765 34.4381 187.929 33.7518 188.257C33.0655 188.585 32.5406 189.037 32.1773 189.652L32.0965 189.734L32.0561 189.611C31.7332 188.996 31.2487 188.544 30.6431 188.216C30.0375 187.888 29.3511 187.724 28.5437 187.724C27.7766 187.724 27.0903 187.847 26.525 188.134C25.9194 188.421 25.435 188.831 25.0716 189.324L24.9505 189.488L24.9505 187.806L23.3356 187.806L23.3356 198.062L25.0312 198.062L25.0312 192.77C25.0312 191.662 25.3139 190.76 25.8791 190.144C26.4443 189.529 27.2114 189.242 28.1803 189.242C29.0282 189.242 29.7145 189.488 30.199 190.021C30.6835 190.554 30.8853 191.334 30.8853 192.359L30.8853 198.062L32.581 198.062L32.581 192.77C32.581 191.662 32.8636 190.76 33.4288 190.144C34.0344 189.611 34.8015 189.283 35.7301 189.283Z" fill="white"/>
<path d="M50.5066 197.364C51.1929 197.898 52.0811 198.185 53.2116 198.185C53.9787 198.185 54.665 198.062 55.2302 197.816C55.7954 197.569 56.2395 197.2 56.5221 196.749L56.6433 196.544L56.6433 198.103L58.2582 198.103L58.2582 191.908C58.2582 190.554 57.8948 189.488 57.1681 188.79C56.4414 188.093 55.3513 187.765 53.9787 187.765C53.1712 187.765 52.4041 187.888 51.6774 188.093C50.9911 188.298 50.3855 188.626 49.8606 189.037L50.547 190.308C50.9507 189.98 51.4352 189.734 51.96 189.529C52.5252 189.324 53.1308 189.242 53.7768 189.242C54.7054 189.242 55.3917 189.447 55.8762 189.898C56.3607 190.349 56.6029 190.965 56.6029 191.826L56.6029 192.277L53.5346 192.277C52.1215 192.277 51.1122 192.565 50.4662 193.098C49.8202 193.631 49.4973 194.37 49.4973 195.231C49.4973 196.093 49.8202 196.831 50.5066 197.364ZM53.6153 193.467L56.5221 193.467L56.5221 195.026C56.2799 195.641 55.9166 196.093 55.3917 196.421C54.8669 196.749 54.2209 196.913 53.5346 196.913C52.8078 196.913 52.2426 196.749 51.8389 196.462C51.4352 196.134 51.1929 195.723 51.1929 195.19C51.1929 194.041 52.0004 193.467 53.6153 193.467Z" fill="white"/>
<path d="M73.3577 189.406C73.5192 189.406 73.5999 189.406 73.721 189.406L73.721 187.724C72.8732 187.724 72.1465 187.888 71.5409 188.175C70.9353 188.462 70.4508 188.913 70.1278 189.529L70.0067 189.775L70.0067 187.806L68.3918 187.806L68.3918 198.062L70.0875 198.062L70.0875 192.975C70.0875 191.826 70.3701 190.965 70.9757 190.349C71.5409 189.734 72.3484 189.406 73.3577 189.406Z" fill="white"/>
<path d="M90.4354 198.103L92.5348 198.103L87.892 192.072L87.9323 192.031L92.0907 187.847L90.0721 187.847L84.3795 193.098L84.3795 183.703L82.6838 183.703L82.6838 198.103L84.3795 198.103L84.3795 195.272L86.6 193.221L90.4354 198.103Z" fill="white"/>
<path d="M109.088 196.585L108.159 195.477C107.392 196.298 106.423 196.708 105.212 196.708C104.203 196.708 103.355 196.421 102.668 195.846C101.982 195.272 101.578 194.534 101.457 193.59L101.457 193.508L109.774 193.508C109.814 193.303 109.814 193.139 109.814 193.016C109.814 191.99 109.613 191.047 109.169 190.267C108.765 189.488 108.159 188.831 107.392 188.421C106.625 187.97 105.777 187.765 104.808 187.765C103.839 187.765 102.991 187.97 102.224 188.421C101.457 188.872 100.852 189.488 100.408 190.267C99.9635 191.047 99.7616 191.949 99.7616 192.975C99.7616 193.959 100.004 194.903 100.448 195.682C100.892 196.462 101.538 197.118 102.345 197.528C103.153 197.98 104.122 198.185 105.172 198.185C106.019 198.185 106.786 198.062 107.432 197.775C108.078 197.487 108.644 197.118 109.088 196.585ZM101.457 192.236C101.578 191.334 101.942 190.595 102.547 190.021C103.153 189.447 103.92 189.201 104.808 189.201C105.696 189.201 106.464 189.488 107.069 190.062C107.675 190.636 108.038 191.375 108.159 192.236L108.159 192.318L101.457 192.318L101.457 192.236Z" fill="white"/>
<path d="M120.15 197.405C120.715 197.939 121.482 198.226 122.492 198.226C122.895 198.226 123.299 198.144 123.703 198.062C124.066 197.939 124.389 197.775 124.631 197.569L124.106 196.339C123.703 196.626 123.218 196.79 122.693 196.79C122.169 196.79 121.765 196.626 121.442 196.298C121.159 195.97 120.998 195.518 120.998 194.944L120.998 189.242L123.945 189.242L123.945 187.847L120.998 187.847L120.998 185.591L119.302 185.591L119.302 187.847L117.566 187.847L117.566 189.242L119.302 189.242L119.302 195.026C119.302 196.052 119.585 196.831 120.15 197.405Z" fill="white"/>
<path d="M135.249 187.847L133.554 187.847L133.554 198.103L135.249 198.103L135.249 187.847Z" fill="white"/>
<path d="M135.29 183.745C135.048 183.539 134.765 183.416 134.442 183.416C134.079 183.416 133.836 183.539 133.594 183.745C133.352 183.991 133.271 184.237 133.271 184.565C133.271 184.893 133.392 185.139 133.594 185.385C133.836 185.591 134.119 185.714 134.442 185.714C134.805 185.714 135.048 185.591 135.29 185.385C135.532 185.139 135.613 184.893 135.613 184.565C135.613 184.196 135.492 183.95 135.29 183.745Z" fill="white"/>
<path d="M150.51 189.283C151.399 189.283 152.125 189.529 152.61 190.062C153.094 190.595 153.337 191.375 153.337 192.4L153.337 198.103L155.032 198.103L155.032 192.195C155.032 190.76 154.669 189.652 153.902 188.872C153.135 188.134 152.125 187.765 150.874 187.765C150.066 187.765 149.34 187.888 148.734 188.175C148.128 188.462 147.604 188.872 147.24 189.365L147.119 189.529L147.119 187.806L145.504 187.806L145.504 198.062L147.2 198.062L147.2 192.77C147.2 191.662 147.482 190.76 148.088 190.144C148.694 189.611 149.501 189.283 150.51 189.283Z" fill="white"/>
<path d="M169.647 202C171.383 202 172.716 201.549 173.563 200.728C174.452 199.867 174.855 198.554 174.855 196.749L174.855 187.847L173.24 187.847L173.24 189.611L173.119 189.447C172.716 188.913 172.15 188.462 171.504 188.216C170.858 187.929 170.132 187.806 169.365 187.806C168.396 187.806 167.507 188.011 166.74 188.421C165.973 188.831 165.368 189.406 164.924 190.185C164.479 190.924 164.278 191.785 164.278 192.77C164.278 193.713 164.52 194.616 164.924 195.354C165.368 196.093 165.973 196.708 166.74 197.118C167.507 197.528 168.396 197.734 169.365 197.734C170.091 197.734 170.778 197.61 171.424 197.323C172.029 197.077 172.594 196.667 172.998 196.134L173.119 195.97L173.119 196.995C173.119 198.185 172.837 199.087 172.231 199.662C171.666 200.236 170.737 200.564 169.526 200.564C168.759 200.564 168.032 200.441 167.346 200.195C166.66 199.949 166.094 199.662 165.61 199.251L164.802 200.564C165.327 201.015 166.014 201.385 166.861 201.672C167.79 201.877 168.678 202 169.647 202ZM172.756 194.493C172.433 195.026 172.029 195.436 171.464 195.723C170.939 196.011 170.293 196.175 169.647 196.175C168.961 196.175 168.315 196.011 167.79 195.723C167.265 195.436 166.821 195.026 166.498 194.493C166.175 193.959 166.054 193.385 166.054 192.688C166.054 191.662 166.377 190.842 167.063 190.185C167.75 189.57 168.598 189.242 169.647 189.242C170.697 189.242 171.545 189.57 172.231 190.185C172.917 190.801 173.24 191.662 173.24 192.688C173.2 193.344 173.039 193.959 172.756 194.493Z" fill="white"/>
<path d="M195.97 194.739C195.97 195.395 196.172 196.011 196.576 196.544C196.98 197.077 197.545 197.487 198.231 197.775C198.958 198.062 199.765 198.226 200.654 198.226C202.43 198.226 203.924 197.652 205.135 196.503L205.175 196.462L206.952 198.267L207.921 197.118L206.104 195.272L206.144 195.231C206.669 194.37 207.073 193.344 207.315 192.195L205.983 191.744C205.821 192.647 205.539 193.467 205.175 194.165L205.135 194.247L201.663 190.76L201.744 190.719C202.753 190.144 203.48 189.57 203.924 188.996C204.368 188.462 204.57 187.847 204.57 187.19C204.57 186.329 204.287 185.632 203.682 185.139C203.076 184.647 202.269 184.401 201.259 184.401C200.169 184.401 199.281 184.688 198.635 185.221C197.989 185.755 197.666 186.493 197.666 187.396C197.666 187.888 197.787 188.38 198.029 188.872C198.272 189.365 198.675 189.898 199.281 190.472L199.362 190.554L199.281 190.595C198.11 191.252 197.303 191.949 196.778 192.565C196.213 193.221 195.97 193.918 195.97 194.739ZM199.2 187.355C199.2 186.821 199.362 186.411 199.725 186.083C200.088 185.755 200.573 185.591 201.179 185.591C201.744 185.591 202.228 185.755 202.551 186.001C202.874 186.288 203.036 186.657 203.036 187.149C203.036 187.601 202.874 188.011 202.511 188.38C202.147 188.749 201.542 189.201 200.654 189.693L200.613 189.734L200.573 189.693C200.048 189.119 199.644 188.667 199.483 188.339C199.281 188.093 199.2 187.724 199.2 187.355ZM198.191 192.975C198.554 192.524 199.2 192.031 200.129 191.498L200.169 191.457L204.085 195.436L204.045 195.477C203.157 196.339 202.067 196.79 200.694 196.79C199.765 196.79 199.039 196.585 198.473 196.175C197.908 195.764 197.585 195.19 197.585 194.534C197.626 194 197.828 193.467 198.191 192.975Z" fill="white"/>
<path d="M240.744 189.283C241.592 189.283 242.278 189.529 242.763 190.062C243.247 190.595 243.449 191.375 243.449 192.4L243.449 198.103L245.145 198.103L245.145 192.195C245.145 190.719 244.781 189.611 244.055 188.872C243.328 188.134 242.319 187.765 241.067 187.765C240.219 187.765 239.452 187.929 238.766 188.257C238.079 188.585 237.555 189.037 237.191 189.652L237.11 189.734L237.07 189.611C236.747 188.996 236.263 188.544 235.657 188.216C235.051 187.888 234.365 187.724 233.558 187.724C232.791 187.724 232.104 187.847 231.539 188.134C230.933 188.421 230.449 188.831 230.086 189.324L229.964 189.488L229.964 187.806L228.35 187.806L228.35 198.062L230.045 198.062L230.045 192.77C230.045 191.662 230.328 190.76 230.893 190.144C231.458 189.529 232.225 189.242 233.194 189.242C234.042 189.242 234.728 189.488 235.213 190.021C235.697 190.554 235.899 191.334 235.899 192.359L235.899 198.062L237.595 198.062L237.595 192.77C237.595 191.662 237.878 190.76 238.443 190.144C239.048 189.611 239.815 189.283 240.744 189.283Z" fill="white"/>
<path d="M261.496 196.749L261.617 196.544L261.617 198.103L263.232 198.103L263.232 191.908C263.232 190.554 262.868 189.488 262.142 188.79C261.415 188.093 260.325 187.765 258.952 187.765C258.145 187.765 257.378 187.888 256.651 188.093C255.965 188.298 255.359 188.626 254.834 189.037L255.52 190.308C255.924 189.98 256.409 189.734 256.934 189.529C257.499 189.324 258.104 189.242 258.75 189.242C259.679 189.242 260.365 189.447 260.85 189.898C261.334 190.349 261.576 190.965 261.576 191.826L261.576 192.277L258.589 192.277C257.176 192.277 256.166 192.565 255.52 193.098C254.875 193.631 254.552 194.37 254.552 195.231C254.552 196.134 254.875 196.831 255.561 197.405C256.247 197.939 257.135 198.226 258.266 198.226C259.033 198.226 259.719 198.103 260.285 197.857C260.769 197.569 261.213 197.2 261.496 196.749ZM260.365 196.421C259.84 196.749 259.194 196.913 258.508 196.913C257.781 196.913 257.216 196.749 256.812 196.462C256.409 196.134 256.207 195.723 256.207 195.19C256.207 194.082 257.014 193.508 258.629 193.508L261.536 193.508L261.536 195.067C261.294 195.6 260.89 196.093 260.365 196.421Z" fill="white"/>
<path d="M278.372 189.283C279.26 189.283 279.987 189.529 280.471 190.062C280.955 190.595 281.198 191.375 281.198 192.4L281.198 198.103L282.893 198.103L282.893 192.195C282.893 190.76 282.53 189.652 281.763 188.872C280.996 188.134 279.987 187.765 278.735 187.765C277.928 187.765 277.201 187.888 276.595 188.175C275.99 188.462 275.465 188.872 275.101 189.365L274.98 189.529L274.98 187.806L273.365 187.806L273.365 198.062L275.061 198.062L275.061 192.77C275.061 191.662 275.344 190.76 275.949 190.144C276.555 189.611 277.362 189.283 278.372 189.283Z" fill="white"/>
<path d="M293.269 197.364C293.956 197.898 294.844 198.185 295.974 198.185C296.741 198.185 297.428 198.062 297.993 197.816C298.558 197.569 299.002 197.2 299.285 196.749L299.406 196.544L299.406 198.103L301.021 198.103L301.021 191.908C301.021 190.554 300.658 189.488 299.931 188.79C299.204 188.093 298.114 187.765 296.741 187.765C295.934 187.765 295.167 187.888 294.44 188.093C293.754 188.298 293.148 188.626 292.623 189.037L293.31 190.308C293.713 189.98 294.157 189.734 294.723 189.529C295.288 189.324 295.894 189.242 296.539 189.242C297.468 189.242 298.154 189.447 298.639 189.898C299.123 190.349 299.366 190.965 299.366 191.826L299.366 192.277L296.378 192.277C294.965 192.277 293.956 192.565 293.31 193.098C292.664 193.631 292.341 194.37 292.341 195.231C292.26 196.093 292.583 196.831 293.269 197.364ZM296.378 193.467L299.285 193.467L299.285 195.026C299.043 195.641 298.679 196.093 298.154 196.421C297.63 196.749 296.984 196.913 296.297 196.913C295.57 196.913 295.005 196.749 294.602 196.462C294.198 196.134 293.956 195.723 293.956 195.19C293.956 194.041 294.763 193.467 296.378 193.467Z" fill="white"/>
<path d="M315.595 202C317.332 202 318.664 201.549 319.512 200.728C320.4 199.867 320.804 198.554 320.804 196.749L320.804 187.847L319.189 187.847L319.189 189.611L319.068 189.447C318.664 188.913 318.099 188.462 317.453 188.216C316.807 187.929 316.08 187.806 315.313 187.806C314.344 187.806 313.456 188.011 312.689 188.421C311.922 188.831 311.316 189.406 310.872 190.185C310.428 190.924 310.226 191.785 310.226 192.77C310.226 193.713 310.468 194.616 310.872 195.354C311.316 196.093 311.922 196.708 312.689 197.118C313.456 197.528 314.344 197.734 315.313 197.734C316.04 197.734 316.726 197.61 317.372 197.323C317.978 197.077 318.543 196.667 318.946 196.134L319.068 195.97L319.068 196.995C319.068 198.185 318.785 199.087 318.179 199.662C317.614 200.236 316.686 200.564 315.474 200.564C314.707 200.564 313.981 200.441 313.294 200.195C312.608 199.949 312.043 199.662 311.558 199.251L310.751 200.564C311.276 201.015 311.962 201.385 312.81 201.672C313.738 201.877 314.627 202 315.595 202ZM318.704 194.493C318.381 195.026 317.977 195.436 317.412 195.723C316.887 196.011 316.241 196.175 315.595 196.175C314.909 196.175 314.263 196.011 313.738 195.723C313.213 195.436 312.769 195.026 312.446 194.493C312.123 193.959 312.002 193.385 312.002 192.688C312.002 191.662 312.325 190.842 313.012 190.185C313.658 189.57 314.546 189.242 315.595 189.242C316.645 189.242 317.493 189.57 318.179 190.185C318.866 190.801 319.189 191.662 319.189 192.688C319.148 193.344 318.987 193.959 318.704 194.493Z" fill="white"/>
<path d="M330.776 190.267C330.332 191.047 330.13 191.949 330.13 192.975C330.13 193.959 330.372 194.903 330.816 195.682C331.26 196.462 331.906 197.118 332.714 197.528C333.521 197.98 334.49 198.185 335.54 198.185C336.388 198.185 337.155 198.062 337.801 197.775C338.447 197.487 339.012 197.118 339.456 196.585L338.527 195.477C337.76 196.298 336.791 196.708 335.58 196.708C334.571 196.708 333.723 196.421 333.037 195.846C332.35 195.272 331.947 194.534 331.825 193.59L331.825 193.508L340.142 193.508C340.183 193.303 340.183 193.139 340.183 193.016C340.183 191.99 339.981 191.047 339.537 190.267C339.133 189.488 338.527 188.831 337.76 188.421C336.993 187.97 336.145 187.765 335.176 187.765C334.207 187.765 333.36 187.97 332.593 188.421C331.785 188.872 331.179 189.488 330.776 190.267ZM331.825 192.236C331.947 191.334 332.31 190.595 332.915 190.021C333.521 189.447 334.288 189.201 335.176 189.201C336.065 189.201 336.832 189.488 337.437 190.062C338.043 190.636 338.406 191.375 338.527 192.236L338.527 192.318L331.825 192.318L331.825 192.236Z" fill="white"/>
<path d="M361.782 189.283C362.63 189.283 363.316 189.529 363.801 190.062C364.285 190.595 364.487 191.375 364.487 192.4L364.487 198.103L366.183 198.103L366.183 192.195C366.183 190.719 365.819 189.611 365.093 188.872C364.366 188.134 363.357 187.765 362.105 187.765C361.257 187.765 360.49 187.929 359.804 188.257C359.118 188.585 358.593 189.037 358.229 189.652L358.149 189.734L358.108 189.611C357.785 188.996 357.301 188.544 356.695 188.216C356.09 187.888 355.403 187.724 354.596 187.724C353.829 187.724 353.142 187.847 352.577 188.134C351.972 188.421 351.487 188.831 351.124 189.324L351.003 189.488L351.003 187.806L349.388 187.806L349.388 198.062L351.083 198.062L351.083 192.77C351.083 191.662 351.366 190.76 351.931 190.144C352.496 189.529 353.263 189.242 354.232 189.242C355.08 189.242 355.767 189.488 356.251 190.021C356.736 190.554 356.937 191.334 356.937 192.359L356.937 198.062L358.633 198.062L358.633 192.77C358.633 191.662 358.916 190.76 359.481 190.144C360.086 189.611 360.854 189.283 361.782 189.283Z" fill="white"/>
<path d="M385.481 193.016C385.481 191.99 385.279 191.047 384.835 190.267C384.431 189.488 383.826 188.831 383.059 188.421C382.292 187.97 381.444 187.765 380.475 187.765C379.506 187.765 378.658 187.97 377.891 188.421C377.124 188.872 376.518 189.488 376.074 190.267C375.63 191.047 375.428 191.949 375.428 192.975C375.428 193.959 375.67 194.903 376.115 195.682C376.559 196.462 377.205 197.118 378.012 197.528C378.82 197.98 379.788 198.185 380.838 198.185C381.686 198.185 382.453 198.062 383.099 197.775C383.745 197.487 384.31 197.118 384.754 196.585L383.826 195.477C383.059 196.298 382.09 196.708 380.879 196.708C379.869 196.708 379.021 196.421 378.335 195.846C377.649 195.272 377.245 194.534 377.124 193.59L377.124 193.508L385.441 193.508C385.481 193.303 385.481 193.139 385.481 193.016ZM377.124 192.318L377.124 192.236C377.245 191.334 377.608 190.595 378.214 190.021C378.82 189.447 379.587 189.201 380.475 189.201C381.363 189.201 382.13 189.488 382.736 190.062C383.341 190.636 383.705 191.375 383.826 192.236L383.826 192.318L377.124 192.318Z" fill="white"/>
<path d="M399.773 189.283C400.661 189.283 401.388 189.529 401.872 190.062C402.357 190.595 402.599 191.375 402.599 192.4L402.599 198.103L404.295 198.103L404.295 192.195C404.295 190.76 403.931 189.652 403.164 188.872C402.397 188.134 401.388 187.765 400.136 187.765C399.329 187.765 398.602 187.888 397.996 188.175C397.391 188.462 396.866 188.872 396.503 189.365L396.381 189.529L396.381 187.806L394.767 187.806L394.767 198.062L396.462 198.062L396.462 192.77C396.462 191.662 396.745 190.76 397.35 190.144C397.916 189.611 398.723 189.283 399.773 189.283Z" fill="white"/>
<path d="M415.519 197.405C416.084 197.939 416.851 198.226 417.86 198.226C418.264 198.226 418.668 198.144 419.071 198.062C419.435 197.939 419.758 197.775 420 197.569L419.475 196.339C419.071 196.626 418.587 196.79 418.062 196.79C417.537 196.79 417.134 196.626 416.811 196.298C416.528 195.97 416.366 195.518 416.366 194.944L416.366 189.242L419.314 189.242L419.314 187.847L416.366 187.847L416.366 185.591L414.671 185.591L414.671 187.847L412.935 187.847L412.935 189.242L414.671 189.242L414.671 195.026C414.671 196.052 414.953 196.831 415.519 197.405Z" fill="white"/>
<path d="M152.408 47.4232C147.684 45.0849 142.355 43.9362 136.42 43.9362C125.075 43.9362 116.799 46.4797 111.551 51.6076C106.342 56.7356 103.718 65.3915 103.718 77.6576C103.718 78.5191 103.718 79.2985 103.718 79.9959C103.718 80.6933 103.759 81.2266 103.799 81.6779L129.678 81.6779L129.678 74.2937C129.678 68.9196 131.454 66.253 135.048 66.253C138.964 66.253 140.902 69.5759 140.902 76.1807L140.902 88.816L124.389 95.0926C118.697 97.2258 114.215 99.8103 110.985 102.887C107.755 105.964 105.454 109.861 104.122 114.661C102.79 119.461 102.103 125.573 102.103 133.08C102.103 140.095 102.709 146.331 103.88 151.869C105.05 157.407 107.271 161.756 110.541 164.915C113.771 168.074 118.495 169.673 124.712 169.673C128.507 169.673 131.939 168.32 134.886 165.571C137.874 162.822 139.973 158.884 141.265 153.756L141.265 168.361L167.709 168.361L167.709 74.5808C167.709 67.894 166.337 62.3148 163.591 57.7612C160.846 53.2076 157.091 49.7616 152.408 47.4232ZM140.781 137.265C140.781 139.603 140.377 141.818 139.61 143.829C138.802 145.839 137.349 146.864 135.169 146.864C131.212 146.864 129.234 143.213 129.234 135.952L129.234 120.117C129.234 115.317 130.243 111.666 132.262 109.164C134.28 106.661 137.147 104.61 140.821 102.969L140.821 137.265L140.781 137.265Z" fill="#EE5F96"/>
<path d="M274.011 48.3258C270.66 45.4131 265.896 43.9362 259.719 43.9362C254.632 43.9362 250.676 45.0028 247.93 47.095C245.185 49.1872 242.803 52.264 240.744 56.3253C239.452 52.5922 237.232 49.5975 234.082 47.3412C230.933 45.0849 227.138 43.9362 222.657 43.9362C217.126 43.9362 212.887 45.29 210.02 47.9565C207.154 50.6231 205.135 54.4793 203.924 59.5252L203.924 45.249L177.924 45.249L177.924 168.361L204.529 168.361L204.529 81.4728C204.529 79.2165 204.731 76.9602 205.135 74.6218C205.539 72.2835 206.266 70.3554 207.356 68.7555C208.446 67.1556 209.98 66.3761 211.958 66.3761C214.3 66.3761 215.753 67.6478 216.318 70.2323C216.884 72.8168 217.166 75.3603 217.166 77.9448L217.166 168.402L243.691 168.402L243.691 79.9959C243.691 77.8627 243.893 75.7295 244.297 73.5963C244.701 71.463 245.427 69.658 246.437 68.2222C247.486 66.7864 248.98 66.0479 250.878 66.0479C254.552 66.0479 256.368 70.0272 256.368 77.9448L256.368 168.402L282.893 168.402L282.893 78.437C282.893 71.6681 282.247 65.6787 280.915 60.5097C279.704 55.2998 277.362 51.2794 274.011 48.3258Z" fill="#EE5F96"/>
<path d="M325.931 43.9362C315.515 43.9362 307.359 46.8899 301.425 52.7563C295.49 58.6227 292.502 67.2786 292.502 78.7242L292.502 128.199C292.502 136.896 293.512 144.362 295.53 150.515C297.549 156.71 300.94 161.428 305.623 164.71C310.347 167.991 316.645 169.632 324.558 169.632C332.996 169.632 339.617 168.074 344.503 164.915C349.388 161.756 352.86 157.079 354.919 150.885C356.978 144.69 357.987 136.978 357.987 127.788L357.987 120.814L331.543 120.814L331.543 132.629C331.543 136.896 331.179 140.342 330.493 143.008C329.807 145.675 328.071 146.987 325.285 146.987C323.347 146.987 321.934 146.29 321.086 144.936C320.238 143.582 319.673 141.818 319.431 139.726C319.189 137.634 319.068 135.46 319.068 133.286L319.068 109.492L357.704 109.492C357.906 105.759 357.987 98.4975 357.987 87.6673L357.987 78.7242C358.027 55.5459 347.329 43.9362 325.931 43.9362ZM331.583 94.9285L318.946 94.9285L318.946 78.355C318.946 73.7604 319.512 70.5195 320.682 68.6734C321.853 66.8274 323.509 65.8838 325.608 65.8838C327.586 65.8838 329.08 66.8684 330.049 68.7965C331.058 70.7246 331.543 73.9244 331.543 78.355L331.543 94.9285L331.583 94.9285Z" fill="#EE5F96"/>
<path d="M393.556 146.372L419.798 65.2685L419.798 45.249L365.739 45.249L365.739 68.5504L392.223 68.5504L364.406 150.392L364.406 168.361L420 168.361L420 146.372L393.556 146.372Z" fill="#EE5F96"/>
</svg>
