<svg width="16" height="14" viewBox="0 0 16 14" fill="none" xmlns="http://www.w3.org/2000/svg">
<path d="M10.5329 5.40672L7.15789 3.15672C7.07316 3.10019 6.97466 3.06772 6.87292 3.06279C6.77118 3.05786 6.67001 3.08065 6.58021 3.12873C6.49041 3.17681 6.41535 3.24837 6.36304 3.33577C6.31073 3.42317 6.28314 3.52314 6.2832 3.625V8.125C6.28314 8.22686 6.31073 8.32683 6.36304 8.41423C6.41535 8.50163 6.49041 8.57319 6.58021 8.62127C6.67001 8.66935 6.77118 8.69214 6.87292 8.68721C6.97466 8.68228 7.07316 8.64981 7.15789 8.59328L10.5329 6.34328C10.61 6.29193 10.6733 6.22232 10.7171 6.14062C10.7609 6.05893 10.7838 5.96768 10.7838 5.875C10.7838 5.78232 10.7609 5.69107 10.7171 5.60938C10.6733 5.52768 10.61 5.45807 10.5329 5.40672ZM7.4082 7.07383V4.67969L9.2068 5.875L7.4082 7.07383ZM14.1582 0.8125H1.7832C1.48483 0.8125 1.19869 0.931026 0.987708 1.142C0.77673 1.35298 0.658203 1.63913 0.658203 1.9375V9.8125C0.658203 10.1109 0.77673 10.397 0.987708 10.608C1.19869 10.819 1.48483 10.9375 1.7832 10.9375H14.1582C14.4566 10.9375 14.7427 10.819 14.9537 10.608C15.1647 10.397 15.2832 10.1109 15.2832 9.8125V1.9375C15.2832 1.63913 15.1647 1.35298 14.9537 1.142C14.7427 0.931026 14.4566 0.8125 14.1582 0.8125ZM14.1582 9.8125H1.7832V1.9375H14.1582V9.8125ZM15.2832 12.625C15.2832 12.7742 15.2239 12.9173 15.1185 13.0227C15.013 13.1282 14.8699 13.1875 14.7207 13.1875H1.2207C1.07152 13.1875 0.928445 13.1282 0.822956 13.0227C0.717466 12.9173 0.658203 12.7742 0.658203 12.625C0.658203 12.4758 0.717466 12.3327 0.822956 12.2273C0.928445 12.1218 1.07152 12.0625 1.2207 12.0625H14.7207C14.8699 12.0625 15.013 12.1218 15.1185 12.2273C15.2239 12.3327 15.2832 12.4758 15.2832 12.625Z" fill="white"/>
</svg>
