<svg width="18" height="18" viewBox="0 0 18 18" fill="none" xmlns="http://www.w3.org/2000/svg">
<path d="M5.7616 11C6.47433 11.4739 7.32989 11.75 8.24992 11.75C9.27801 11.75 10.0308 11.1658 10.5 11M7.875 16.25H4.2C3.77996 16.25 3.56994 16.25 3.40951 16.1683C3.26839 16.0963 3.15365 15.9816 3.08174 15.8405C3 15.6801 3 15.4701 3 15.05V13.25C3 12.0073 4.00736 11 5.25 11H5.625" stroke="white" stroke-linecap="round" stroke-linejoin="round"/>
<path d="M10.7384 11C10.0257 11.4739 9.17011 11.75 8.25008 11.75C7.22199 11.75 6.4692 11.1658 6 11M7.5 16.25H12.3C12.72 16.25 12.9301 16.25 13.0905 16.1683C13.2316 16.0963 13.3463 15.9816 13.4183 15.8405C13.5 15.6801 13.5 15.4701 13.5 15.05V13.25C13.5 12.0073 12.4926 11 11.25 11H10.875" stroke="white" stroke-linecap="round" stroke-linejoin="round"/>
<path d="M8 8.25C9.65682 8.25 11 6.90686 11 5.25C11 3.59314 9.65682 2.25 8 2.25C6.34314 2.25 5 3.59314 5 5.25C5 6.90686 6.34314 8.25 8 8.25Z" stroke="white" stroke-linecap="round" stroke-linejoin="round"/>
</svg>
